<?xml version="1.0" encoding="utf-8"?>
<!-- Generator: Adobe Illustrator 25.2.0, SVG Export Plug-In . SVG Version: 6.00 Build 0)  -->
<svg version="1.1" id="path3444" xmlns="http://www.w3.org/2000/svg" xmlns:xlink="http://www.w3.org/1999/xlink" x="0px" y="0px"
	 viewBox="0 0 1122.6 793.6" style="enable-background:new 0 0 1122.6 793.6;" xml:space="preserve">
<style type="text/css">
	.st0{fill:none;}
	.st1{fill:#B35326;fill-opacity:0.4627;stroke:#AEDFE6;stroke-miterlimit:10;}
	.st2{fill:#008000;stroke:#AEDFE6;stroke-miterlimit:10;}
	.st3{font-family:'ArialMT';}
	.st4{font-size:28.5662px;}
	.st5{fill:none;stroke:#00AAD4;stroke-width:10;}
	.st6{fill:none;stroke:#00AAD4;stroke-width:10;stroke-linejoin:round;stroke-opacity:0.996;}
	.st7{fill:none;stroke:#00AAD4;stroke-width:5.7136;stroke-linejoin:round;stroke-opacity:0.996;}
	.st8{fill:#008000;stroke:#000000;stroke-width:0.2652;}
</style>
<g id="background">
	<rect x="4.6" y="50.7" class="st0" width="1108.5" height="733.4"/>
</g>
<g id="hayatul_text">
	<g id="text1179" transform="matrix(1.4004725,0,0,1.4571709,-212.39216,-18.009364)">
		<path id="path1499" d="M301.3,369.5l8.2,0.5l0.8-12.5l-8.2-0.5c-1.2-0.1-2-0.4-2.6-1c-0.5-0.6-0.8-1.3-0.7-2.1
			c0.1-0.9,0.4-1.6,1-2c0.6-0.5,1.5-0.7,2.7-0.6l22.5,1.5c1.2,0.1,2,0.4,2.6,1c0.5,0.6,0.8,1.3,0.7,2.2c-0.1,0.9-0.4,1.5-1,2
			c-0.6,0.5-1.5,0.7-2.7,0.6l-9.6-0.6l-0.8,12.5l9.6,0.6c1.2,0.1,2,0.4,2.6,1c0.5,0.6,0.8,1.3,0.7,2.2c-0.1,0.9-0.4,1.5-1,2
			c-0.6,0.5-1.5,0.7-2.7,0.6l-22.5-1.5c-1.2-0.1-2-0.4-2.6-0.9c-0.6-0.6-0.8-1.3-0.7-2.2c0.1-0.9,0.4-1.6,1-2
			C299.2,369.6,300.1,369.4,301.3,369.5L301.3,369.5z"/>
		<path id="path1501" d="M330.4,323.3l-3.8,0.6l-2.5,11.4l3.3,2.1c1.3,0.8,2.1,1.5,2.6,2c0.4,0.5,0.5,1.1,0.3,2
			c-0.2,0.7-0.6,1.3-1.2,1.7s-1.3,0.6-2,0.4c-0.4-0.1-0.8-0.2-1.1-0.4s-0.9-0.5-1.6-1l-16.6-11.1c-0.5-0.3-1-0.7-1.7-1.1
			c-0.7-0.5-1.2-0.9-1.6-1.3c-0.4-0.4-0.7-0.9-0.9-1.5c-0.2-0.6-0.2-1.3,0-2.1c0.2-0.8,0.5-1.4,0.9-1.9c0.4-0.5,0.9-0.8,1.4-1
			c0.5-0.2,1.1-0.4,1.7-0.5c0.6-0.1,1.4-0.2,2.3-0.4l19.6-3.4c1.5-0.3,2.6-0.3,3.2-0.2c0.6,0.1,1.2,0.5,1.6,1.2
			c0.4,0.6,0.5,1.4,0.4,2.1c-0.1,0.4-0.3,0.8-0.5,1.1c-0.2,0.3-0.5,0.5-0.8,0.7c-0.3,0.2-0.8,0.3-1.4,0.4
			C331.5,323.1,330.9,323.2,330.4,323.3L330.4,323.3z M320.3,332.8l1.8-8.4l-12.5,1.7L320.3,332.8z"/>
		<path id="path1503" d="M336.3,304.5l-8.6-3l-12.6,3c-1.1,0.3-2,0.4-2.6,0.5c-0.6,0.1-1.1,0-1.5-0.1c-0.6-0.2-1.1-0.7-1.4-1.3
			c-0.3-0.7-0.3-1.3,0-2c0.3-0.7,0.7-1.2,1.2-1.5c0.6-0.2,1.6-0.5,3.1-0.9l10-2.1l-6.4-8c-0.4-0.5-0.7-0.9-1-1.2
			c-0.3-0.3-0.5-0.7-0.7-1c-0.2-0.4-0.3-0.7-0.4-1.1c-0.1-0.4,0-0.8,0.2-1.2c0.2-0.7,0.7-1.2,1.3-1.5c0.6-0.3,1.2-0.4,1.8-0.2
			c0.5,0.2,0.9,0.5,1.3,0.9s0.9,1,1.6,1.9l8,10.4l8.6,3c1.1,0.4,1.9,0.9,2.2,1.7s0.4,1.5,0.1,2.3c-0.3,0.8-0.8,1.4-1.5,1.7
			C338.3,305,337.4,304.9,336.3,304.5L336.3,304.5z"/>
		<path id="path1505" d="M351.9,268.1l-3.8-0.4l-5.2,10.4l2.7,2.9c1,1.1,1.7,2,2,2.5c0.3,0.6,0.2,1.2-0.2,2
			c-0.3,0.7-0.9,1.1-1.6,1.4c-0.7,0.3-1.4,0.2-2-0.1c-0.3-0.2-0.7-0.4-1-0.7s-0.7-0.8-1.3-1.4l-13.3-14.9c-0.4-0.4-0.8-0.9-1.4-1.5
			c-0.5-0.6-1-1.2-1.3-1.7c-0.3-0.5-0.4-1.1-0.5-1.7c0-0.6,0.1-1.3,0.5-2c0.4-0.7,0.8-1.2,1.3-1.6c0.5-0.4,1.1-0.6,1.6-0.6
			c0.6-0.1,1.2-0.1,1.8,0c0.6,0,1.4,0.1,2.4,0.2l19.9,1.6c1.5,0.1,2.6,0.3,3.1,0.6c0.6,0.3,1,0.8,1.3,1.6c0.2,0.7,0.2,1.5-0.2,2.1
			c-0.2,0.4-0.5,0.7-0.8,0.9c-0.3,0.2-0.6,0.4-0.9,0.4c-0.4,0.1-0.8,0.1-1.5,0.1C353,268.1,352.4,268.1,351.9,268.1L351.9,268.1z
			 M339.7,274.8l3.8-7.6l-12.5-1.5L339.7,274.8z"/>
		<path id="path1507" d="M351.4,230.4l-3.6,5.2l17.2,11.7c1,0.7,1.6,1.4,1.8,2.2c0.2,0.8,0,1.5-0.5,2.2c-0.5,0.7-1.1,1.1-1.9,1.2
			c-0.8,0.1-1.7-0.2-2.6-0.8l-17.2-11.7l-3.6,5.2c-0.6,0.8-1.1,1.3-1.8,1.5c-0.6,0.1-1.3,0-1.8-0.4c-0.6-0.4-1-1-1-1.6
			c-0.1-0.7,0.2-1.4,0.7-2.2l10.4-15.2c0.6-0.8,1.2-1.3,1.8-1.5c0.6-0.2,1.3,0,1.9,0.4c0.6,0.4,0.9,0.9,1,1.6
			C352.2,228.9,352,229.6,351.4,230.4L351.4,230.4z"/>
		<path id="path1509" d="M369.3,226.8l-10.1-9.3c-0.9-0.8-1.3-1.6-1.4-2.4c-0.1-0.8,0.2-1.5,0.8-2.1c0.6-0.7,1.3-1,2.1-1
			c0.8,0,1.6,0.4,2.5,1.2l10.4,9.5c1.2,1.1,2.3,1.9,3.3,2.3c1,0.5,2.1,0.6,3.1,0.3c1-0.3,2.1-1,3.2-2.2c1.5-1.7,2.2-3.2,1.9-4.8
			c-0.3-1.5-1.3-3.1-3.1-4.8l-10.4-9.6c-0.9-0.8-1.3-1.6-1.4-2.4c-0.1-0.8,0.2-1.5,0.8-2.1c0.6-0.6,1.3-1,2.1-1
			c0.8,0,1.6,0.4,2.5,1.2l10.1,9.3c1.6,1.5,2.9,2.9,3.7,4.3c0.8,1.3,1.2,2.8,1.2,4.5c0,1.4-0.3,2.8-0.9,4.1c-0.6,1.3-1.5,2.7-2.8,4
			c-1.5,1.6-2.9,2.9-4.4,3.7c-1.4,0.8-2.8,1.3-4.3,1.4c-1.4,0.1-2.9-0.3-4.3-1C372.4,229.3,370.8,228.2,369.3,226.8L369.3,226.8z"/>
		<path id="path1511" d="M391,186.1l13.1,16.2l9.2-7.4c0.7-0.6,1.4-0.9,2.1-0.8c0.7,0,1.2,0.3,1.7,0.9c0.4,0.5,0.6,1.1,0.5,1.8
			c-0.1,0.6-0.5,1.3-1.3,1.9l-10.9,8.8c-1,0.8-1.9,1.1-2.7,1.1c-0.8-0.1-1.6-0.6-2.3-1.6l-13.8-17.2c-0.7-0.9-1.1-1.8-1-2.5
			c0-0.8,0.4-1.5,1.1-2c0.7-0.5,1.4-0.8,2.2-0.6C389.5,184.7,390.2,185.2,391,186.1L391,186.1z"/>
		<path id="path1513" d="M437.2,181.5l-11-19.7c-0.6-1-0.8-1.9-0.6-2.7c0.2-0.8,0.6-1.4,1.4-1.8c0.8-0.4,1.5-0.5,2.3-0.3
			c0.8,0.2,1.4,0.9,2,1.9l11,19.7c0.6,1,0.8,1.9,0.6,2.7c-0.2,0.8-0.7,1.4-1.4,1.8c-0.7,0.4-1.5,0.5-2.2,0.2
			C438.4,183.1,437.7,182.5,437.2,181.5L437.2,181.5z"/>
		<path id="path1515" d="M470.4,159.5c0.7,1.6,0.9,3.2,0.6,4.8c-0.3,1.6-1,3.1-2.3,4.5c-1.3,1.4-3,2.6-5.2,3.5
			c-2.6,1.1-5,1.5-7.1,1.3c-1.5-0.2-2.9-0.7-4.1-1.6c-1.2-0.9-2.1-1.9-2.6-3c-0.3-0.6-0.3-1.3,0-1.9c0.3-0.7,0.7-1.1,1.4-1.4
			c0.6-0.2,1.1-0.3,1.6-0.1c0.5,0.2,1.1,0.6,1.7,1.2c0.7,0.7,1.4,1.2,2,1.6c0.6,0.4,1.4,0.6,2.3,0.7c0.9,0.1,1.9-0.2,3-0.7
			c1.6-0.7,2.7-1.6,3.4-2.7c0.7-1.2,0.8-2.3,0.3-3.4c-0.4-0.9-0.9-1.5-1.7-1.8c-0.8-0.3-1.6-0.4-2.6-0.4c-1,0.1-2.2,0.2-3.8,0.5
			c-2.1,0.4-3.9,0.5-5.4,0.5c-1.5-0.1-2.9-0.4-4.1-1.1c-1.2-0.7-2.1-1.8-2.8-3.3c-0.6-1.4-0.8-2.9-0.5-4.4c0.3-1.5,1.1-2.8,2.3-4.1
			c1.2-1.3,2.9-2.3,4.9-3.2c1.6-0.7,3.1-1.1,4.4-1.2c1.4-0.1,2.6,0,3.6,0.3c1.1,0.3,1.9,0.8,2.6,1.4c0.7,0.6,1.2,1.2,1.5,1.9
			c0.3,0.6,0.3,1.3,0.1,2c-0.2,0.7-0.7,1.2-1.3,1.5c-0.6,0.3-1.1,0.3-1.6,0.2c-0.4-0.2-1-0.5-1.7-1.1c-0.9-0.8-1.8-1.3-2.7-1.6
			c-0.9-0.3-2.1-0.1-3.6,0.5c-1.4,0.6-2.4,1.4-2.9,2.3c-0.6,1-0.7,1.9-0.3,2.7c0.2,0.5,0.6,0.9,1,1.2c0.5,0.3,1,0.4,1.6,0.5
			c0.6,0.1,1.2,0.1,1.8,0c0.6-0.1,1.5-0.2,2.8-0.4c1.6-0.3,3.1-0.5,4.5-0.6c1.4-0.1,2.6,0,3.7,0.2c1.1,0.2,2.1,0.7,3,1.4
			C469.1,157.1,469.8,158.1,470.4,159.5L470.4,159.5z"/>
		<path id="path1517" d="M481.6,138.1l5.7,20.1l11.3-3.2c0.9-0.3,1.7-0.2,2.3,0.1c0.6,0.3,1,0.8,1.2,1.4c0.2,0.7,0.1,1.3-0.2,1.9
			c-0.4,0.5-1,1-1.9,1.2l-13.5,3.8c-1.2,0.3-2.2,0.3-2.9-0.1c-0.7-0.4-1.2-1.2-1.5-2.4l-6-21.2c-0.3-1.1-0.3-2,0-2.7
			c0.4-0.7,0.9-1.2,1.8-1.4c0.8-0.2,1.6-0.1,2.3,0.3C480.8,136.1,481.3,136.9,481.6,138.1L481.6,138.1z"/>
		<path id="path1519" d="M528.4,151.3l-1.9-3.4l-11.5,1.6l-0.8,3.8c-0.3,1.5-0.6,2.5-0.9,3.1c-0.3,0.5-0.9,0.9-1.7,1
			c-0.7,0.1-1.4-0.1-2-0.5s-1-1-1.1-1.7c-0.1-0.4,0-0.8,0-1.2c0.1-0.4,0.2-1,0.4-1.8l4.7-19.4c0.1-0.6,0.3-1.2,0.5-2
			c0.2-0.8,0.4-1.5,0.7-2c0.3-0.5,0.6-1,1.1-1.4c0.5-0.4,1.1-0.6,1.9-0.7c0.8-0.1,1.5-0.1,2.1,0.2c0.6,0.2,1.1,0.5,1.5,1
			c0.4,0.4,0.8,0.9,1,1.4c0.3,0.5,0.7,1.2,1.2,2.1l10,17.3c0.8,1.3,1.2,2.3,1.3,2.9c0.1,0.7-0.1,1.3-0.6,1.9c-0.5,0.6-1.1,1-1.9,1.1
			c-0.5,0.1-0.8,0-1.2-0.1c-0.3-0.1-0.6-0.3-0.9-0.5c-0.3-0.3-0.6-0.6-0.9-1.2C528.9,152.2,528.6,151.7,528.4,151.3L528.4,151.3z
			 M515.9,145l8.5-1.2l-5.9-11.1L515.9,145z"/>
		<path id="path1521" d="M553.9,148.9l-4.2-18.3l-0.4,19.8c0,1.1-0.3,1.9-0.8,2.4c-0.5,0.5-1.1,0.8-2,0.8c-0.8,0-1.4-0.3-1.9-0.8
			c-0.5-0.6-0.7-1.4-0.7-2.5l0.5-22.7c0-1.2,0.4-2.1,1-2.5c0.7-0.4,1.5-0.6,2.7-0.6l1.8,0c1.1,0,1.9,0.1,2.3,0.3
			c0.5,0.2,0.8,0.6,1.1,1.1s0.5,1.3,0.7,2.5l3.8,15.8l4.5-15.6c0.3-1.1,0.6-2,0.9-2.5c0.2-0.5,0.6-0.8,1.1-1
			c0.5-0.2,1.3-0.3,2.4-0.2l1.8,0c1.1,0,2,0.3,2.6,0.7c0.6,0.4,0.9,1.3,0.9,2.5l-0.5,22.7c0,1.1-0.3,1.9-0.8,2.4
			c-0.5,0.5-1.2,0.8-2,0.8c-0.8,0-1.4-0.3-1.9-0.9c-0.5-0.6-0.7-1.4-0.7-2.5l0.4-19.8l-5,18.1c-0.3,1.2-0.6,2-0.8,2.6
			c-0.2,0.5-0.6,1-1.1,1.5c-0.5,0.4-1.2,0.7-2.1,0.6c-0.7,0-1.2-0.2-1.7-0.5c-0.5-0.3-0.8-0.7-1.1-1.1s-0.4-1-0.6-1.5
			C554.2,150.1,554.1,149.5,553.9,148.9L553.9,148.9z"/>
		<path id="path1523" d="M583,152.3l3.4-22.3c0.2-1.2,0.6-2,1.2-2.5c0.6-0.5,1.3-0.7,2.2-0.6c0.9,0.1,1.5,0.5,2,1.2
			c0.5,0.6,0.6,1.6,0.4,2.7l-3.4,22.3c-0.2,1.2-0.6,2-1.2,2.5c-0.6,0.5-1.4,0.7-2.2,0.5c-0.8-0.1-1.5-0.5-1.9-1.2
			C582.9,154.4,582.8,153.4,583,152.3L583,152.3z"/>
		<path id="path1525" d="M606.4,156.9l2.3-8.8l-4-12.3c-0.3-1.1-0.6-1.9-0.7-2.5c-0.1-0.6-0.1-1.1,0-1.5c0.2-0.6,0.6-1.1,1.2-1.5
			c0.6-0.3,1.3-0.4,2-0.2c0.8,0.2,1.3,0.6,1.6,1.1c0.3,0.5,0.7,1.6,1.1,3.1l3,9.8l7.4-7c0.5-0.4,0.8-0.8,1.1-1.1
			c0.3-0.3,0.6-0.6,1-0.8c0.3-0.2,0.7-0.4,1.1-0.5c0.4-0.1,0.8-0.1,1.2,0.1c0.7,0.2,1.2,0.6,1.6,1.2c0.4,0.6,0.5,1.2,0.3,1.8
			c-0.1,0.5-0.4,1-0.7,1.4s-1,1-1.8,1.7l-9.7,8.8l-2.3,8.8c-0.3,1.1-0.8,1.9-1.5,2.4c-0.7,0.4-1.4,0.5-2.2,0.3
			c-0.8-0.2-1.4-0.7-1.8-1.4C606.1,159,606.1,158,606.4,156.9L606.4,156.9z"/>
		<path id="path1527" d="M644,169.7l0.1-3.8l-10.8-4.5l-2.7,2.9c-1,1.1-1.8,1.8-2.4,2.2c-0.5,0.3-1.2,0.3-2,0
			c-0.7-0.3-1.2-0.8-1.5-1.5c-0.3-0.7-0.3-1.4-0.1-2c0.1-0.4,0.4-0.7,0.6-1c0.3-0.3,0.7-0.8,1.3-1.4l13.9-14.4
			c0.4-0.4,0.9-0.9,1.4-1.5c0.6-0.6,1.1-1,1.6-1.4c0.5-0.3,1.1-0.5,1.7-0.6c0.6-0.1,1.3,0,2,0.3c0.7,0.3,1.3,0.7,1.7,1.2
			c0.4,0.5,0.6,1,0.8,1.6c0.1,0.6,0.2,1.2,0.2,1.8c0,0.6,0,1.4,0,2.4l-0.2,19.9c0,1.5-0.1,2.6-0.4,3.2c-0.3,0.6-0.7,1.1-1.5,1.4
			c-0.7,0.3-1.4,0.3-2.2,0c-0.4-0.2-0.7-0.4-1-0.7c-0.2-0.3-0.4-0.6-0.5-0.9c-0.1-0.3-0.2-0.8-0.2-1.5
			C644,170.7,644,170.2,644,169.7L644,169.7z M636.4,157.9l7.9,3.3l0.5-12.6L636.4,157.9z"/>
		<path id="path1529" d="M694.8,193c-0.5,0.8-1.3,1.4-2.2,2.1c-1,0.6-2.1,1.1-3.5,1.4c-1.4,0.3-2.9,0.3-4.4,0
			c-1.6-0.3-3.2-1-4.9-2.2c-1.2-0.9-2.3-1.7-3.2-2.7c-0.9-0.9-1.5-1.9-2-3c-0.5-1.1-0.8-2.3-0.9-3.5c-0.1-1.2-0.1-2.4,0.1-3.6
			c0.2-1.2,0.5-2.4,1-3.6c0.5-1.2,1.2-2.4,2-3.5c1.3-1.9,2.7-3.4,4.3-4.5c1.6-1.1,3.3-1.9,5-2.2c1.8-0.4,3.5-0.4,5.3,0
			c1.8,0.4,3.4,1.1,5,2.2c1.9,1.3,3.4,2.9,4.3,4.6c1,1.8,1.5,3.5,1.5,5.2c0,1.7-0.3,3-1,4c-0.4,0.5-0.9,0.9-1.6,1.1
			c-0.7,0.2-1.3,0-1.8-0.3c-0.6-0.4-1-0.9-1.1-1.4c-0.1-0.5-0.1-1.2,0-2.2c0.2-1.6,0-3-0.4-4.1c-0.4-1.2-1.3-2.2-2.5-3
			c-2-1.3-4-1.7-6.2-1c-2.2,0.7-4.2,2.4-6.1,5.2c-1.3,1.8-2.1,3.5-2.4,5.1c-0.3,1.6-0.2,3,0.3,4.2c0.5,1.2,1.4,2.3,2.7,3.2
			c1.4,0.9,2.8,1.4,4.2,1.4c1.4,0,2.8-0.5,4.2-1.5c0.6-0.5,1.2-0.8,1.8-1c0.6-0.2,1.2-0.1,1.9,0.4c0.6,0.4,0.9,0.9,1.1,1.6
			C695.3,191.7,695.2,192.4,694.8,193L694.8,193z"/>
		<path id="path1531" d="M726.7,194.2c2.2,2,3.6,4.2,4.3,6.6c0.7,2.3,0.7,4.7,0,7.1c-0.7,2.4-2.1,4.6-4.2,6.8
			c-1.5,1.6-3.1,2.9-4.8,3.8c-1.7,0.9-3.4,1.4-5.2,1.6c-1.8,0.1-3.6-0.1-5.3-0.8c-1.8-0.7-3.5-1.8-5.1-3.3c-1.6-1.5-2.8-3.2-3.6-4.9
			c-0.8-1.7-1.2-3.5-1.1-5.3c0-1.8,0.5-3.5,1.3-5.3c0.8-1.8,2-3.4,3.5-5c1.5-1.6,3.1-2.9,4.8-3.8c1.7-0.9,3.5-1.4,5.2-1.5
			c1.8-0.1,3.5,0.2,5.2,0.8C723.5,191.6,725.1,192.7,726.7,194.2L726.7,194.2z M722.6,210.6c1.4-1.5,2.4-3.1,3-4.7s0.6-3.1,0.3-4.5
			c-0.4-1.4-1.1-2.7-2.3-3.8c-0.8-0.8-1.8-1.4-2.8-1.7c-1-0.4-2.1-0.5-3.1-0.4c-1.1,0.1-2.2,0.5-3.4,1.2c-1.2,0.7-2.3,1.6-3.4,2.8
			c-1.1,1.2-2,2.4-2.6,3.6c-0.6,1.2-0.9,2.4-1,3.6c0,1.1,0.1,2.2,0.6,3.2c0.4,1,1,1.9,1.9,2.7c1.1,1,2.3,1.7,3.7,2
			c1.4,0.3,2.9,0.2,4.5-0.5C719.5,213.3,721.1,212.2,722.6,210.6L722.6,210.6z"/>
		<path id="path1533" d="M733,237.5l11.7-14.7l-15.7,12c-0.9,0.7-1.7,1-2.4,0.9c-0.7-0.1-1.3-0.4-1.8-1c-0.5-0.6-0.6-1.3-0.5-2
			c0.1-0.7,0.6-1.4,1.5-2.1l18-13.7c1-0.8,1.9-1,2.6-0.7c0.7,0.3,1.5,0.8,2.1,1.7l1.1,1.4c0.7,0.9,1,1.5,1.2,2
			c0.1,0.5,0.1,1-0.2,1.5c-0.3,0.5-0.8,1.2-1.5,2.1l-10,12.8l15-6.2c1.1-0.5,1.9-0.7,2.5-0.9c0.5-0.1,1,0,1.5,0.2
			c0.5,0.3,1,0.8,1.7,1.7l1.1,1.4c0.7,0.9,1,1.7,1.1,2.5c0.1,0.8-0.4,1.5-1.4,2.3l-18,13.7c-0.9,0.7-1.7,1-2.4,0.9
			c-0.7-0.1-1.3-0.4-1.8-1.1c-0.5-0.6-0.6-1.3-0.5-2c0.1-0.7,0.6-1.4,1.5-2.1l15.7-12l-17.3,7.4c-1.1,0.5-2,0.8-2.5,1
			c-0.5,0.2-1.2,0.2-1.8,0.1s-1.3-0.5-1.8-1.3c-0.4-0.5-0.6-1.1-0.7-1.6c-0.1-0.5,0-1.1,0.2-1.5c0.2-0.5,0.5-1,0.8-1.4
			C732.2,238.5,732.6,238,733,237.5L733,237.5z"/>
		<path id="path1535" d="M761,268.1l-2.5-4.7l-7.2,3.8c-1,0.5-1.9,0.7-2.7,0.5c-0.8-0.2-1.4-0.7-1.8-1.4c-0.4-0.8-0.5-1.5-0.2-2.3
			c0.3-0.8,0.9-1.4,1.9-1.9l19.5-10.4c1.1-0.6,2.1-0.8,2.8-0.5s1.4,1,2,2.1l3.5,6.6c1,1.9,1.7,3.5,1.9,4.7c0.3,1.2,0.3,2.3,0,3.4
			c-0.3,1.1-0.8,2.1-1.5,3c-0.8,0.9-1.7,1.7-2.9,2.3c-2.6,1.4-5,1.6-7.1,0.7C764.5,273.3,762.6,271.3,761,268.1L761,268.1z
			 M771.9,260.7l-1.8-3.4l-7.7,4.1l1.8,3.4c0.6,1.2,1.3,2.1,2,2.8c0.7,0.7,1.4,1.1,2.2,1.2c0.8,0.1,1.7-0.1,2.6-0.6
			c1.1-0.6,1.8-1.4,2.2-2.4C773.5,264.7,773.1,263,771.9,260.7L771.9,260.7z"/>
		<path id="path1537" d="M785.9,288.4l-19.6,7.1l4,11.1c0.3,0.9,0.4,1.6,0.1,2.3c-0.3,0.6-0.7,1.1-1.4,1.3c-0.7,0.2-1.3,0.2-1.9-0.1
			c-0.6-0.3-1-0.9-1.3-1.8l-4.8-13.2c-0.4-1.2-0.5-2.1-0.1-2.9c0.3-0.7,1.1-1.3,2.3-1.7l20.7-7.5c1.1-0.4,2-0.5,2.7-0.2
			c0.7,0.3,1.2,0.9,1.5,1.7c0.3,0.8,0.3,1.6-0.1,2.3C787.8,287.5,787,288,785.9,288.4L785.9,288.4z"/>
		<path id="path1539" d="M796.8,332.7l-2.8-12.8l-6.9,1.5l2.6,11.8c0.2,0.9,0.1,1.6-0.2,2.1c-0.3,0.5-0.7,0.8-1.4,1
			c-0.6,0.1-1.2,0-1.7-0.3c-0.5-0.3-0.8-0.9-1-1.8l-2.6-11.8l-8,1.7l2.9,13.2c0.2,0.9,0.1,1.6-0.2,2.1c-0.3,0.5-0.8,0.9-1.5,1
			c-0.7,0.1-1.3,0-1.8-0.3c-0.5-0.4-0.9-1-1-1.9l-3.4-15.4c-0.3-1.2-0.2-2.2,0.2-2.9c0.4-0.7,1.3-1.1,2.5-1.4l21-4.6
			c0.8-0.2,1.5-0.2,2.1-0.1c0.6,0.1,1,0.4,1.4,0.9c0.4,0.5,0.6,1.1,0.8,1.9l3.3,15c0.2,0.9,0.1,1.6-0.2,2.1c-0.3,0.5-0.8,0.9-1.4,1
			c-0.7,0.1-1.2,0-1.7-0.3C797.4,334.2,797,333.6,796.8,332.7L796.8,332.7z"/>
		<path id="path1541" d="M780.6,348.9l9.9,5.6l7.8-6.1c0.8-0.6,1.4-1,2-1.3c0.6-0.3,1.1-0.5,1.6-0.5c0.5,0,1.1,0.2,1.5,0.6
			c0.5,0.5,0.8,1,0.8,1.7c0.1,0.8-0.1,1.4-0.6,1.9c-0.4,0.5-1.3,1.2-2.5,2.1l-6.6,4.9l7.3,4c0.6,0.3,1.1,0.6,1.6,0.8
			c0.4,0.2,0.8,0.5,1.1,0.7c0.3,0.2,0.5,0.5,0.7,0.8c0.2,0.3,0.3,0.7,0.3,1.1c0.1,0.7-0.1,1.3-0.5,1.8c-0.4,0.5-0.9,0.8-1.5,0.8
			c-0.9,0.1-2.1-0.3-3.7-1.2l-8.9-4.9l-8.8,6.8c-0.8,0.6-1.4,1.1-1.9,1.4c-0.5,0.3-1,0.5-1.5,0.5c-0.5,0-0.9,0-1.3-0.2
			c-0.4-0.2-0.7-0.5-1-0.9c-0.3-0.4-0.4-0.8-0.4-1.3c0-0.5,0-1,0.2-1.4c0.2-0.4,0.4-0.7,0.8-1c0.3-0.3,0.9-0.8,1.9-1.5l7.5-5.7
			l-8.6-4.7c-0.7-0.4-1.2-0.6-1.4-0.8c-0.3-0.1-0.5-0.3-0.8-0.6c-0.3-0.2-0.5-0.5-0.7-0.8c-0.2-0.3-0.3-0.7-0.3-1.2
			c-0.1-0.7,0.1-1.3,0.5-1.8c0.4-0.5,1-0.8,1.8-0.8C777.9,347.7,779.1,348,780.6,348.9L780.6,348.9z"/>
	</g>
</g>
<g id="tree_trunk">
	<path id="path1247" class="st1" d="M417.5,557.2h274.3c0,0-75.5-8.1-91.3-6.1c-15.7,1.9-74.4-3.5-88.7-1.1
		C497.7,552.5,420.7,554.1,417.5,557.2z M540.5,463.5c-5.8-14.2-28.3-4.7-32.4-2.2c-11.5,2.6-17.7,1.3-26.5,0.3
		c-12-3.3-46.6-20.6-45.5-25.6c-1.7-7.8,25.9,10.6,41.4,13.6c13.1,3.1,26.5-1.1,28.9-6.7c3.8-7.5-12.8-3.3-24.5,0.3
		c-11.1-0.8-18.4-3.9-16.6-7c3.8-3.6,13.1,1.4,20.1-0.8c2.8-1.6,23-8.9,39.1-4.2c26.8,9.7,31.2,33.1,31.2,33.1s3.2-23.6,30.9-32.8
		c7.6-1.4,18.7-4.4,35.6,2.5c3.8,2.2,21,1.1,21,1.1s-2,6.7-14.6,8.1c-7,1.1-28-8.3-24.8-0.6c2,4.7,16.9,7,30.9,5.3
		c9.6-0.8,37.3-16.1,39.9-13.1c2.9,4.4-31.5,20.9-46.4,26.1c-3.5,2.2-12.8,3.1-25.1,0.6c-10.5-2.8-30.9-14.5-34.1,5.3
		c-2.9,24.7,16.9,67.3,31.5,84.3l-88.7-1.1C528.6,531.2,547.2,484.3,540.5,463.5L540.5,463.5z"/>
</g>
<g id="leaves">
	<g id="g1335" transform="translate(-9,-63)">
		<path id="path846" class="st2" d="M559.4,476l4-32.5l5.9,31.8c31.9-30.5-5.7-55.5-5.7-55.5C558.6,420.5,528.4,449.9,559.4,476z"/>
		<path id="path846-4" class="st2" d="M560.7,407.8l4-32.5l5.9,31.8c31.9-30.5-5.7-55.5-5.7-55.5
			C559.9,352.2,529.7,381.7,560.7,407.8z"/>
		<path id="path846-1" class="st2" d="M594.2,431.3l21.7-19.6L601.8,437c40.8-1.2,27.9-41.2,27.9-41.2
			C625.7,393.1,586.8,394.6,594.2,431.3z"/>
		<path id="path846-0" class="st2" d="M651.8,472.9l38.1-4.1l-34.6,12.5c43.7,20.4,61.6-17.9,61.6-17.9
			C714.8,459.2,672.8,440,651.8,472.9z"/>
		<path id="path846-3" class="st2" d="M695.2,504.9l38.5,2.9l-37.4,6c36.8,27.8,65.4-6.3,65.4-6.3
			C760.7,503,725.2,476.7,695.2,504.9z"/>
		<path id="path846-89" class="st2" d="M430.9,511.4l-34.1-3.2L430,502c-32.6-29.8-58.1,6.5-58.1,6.5
			C372.7,513.3,404.1,541.5,430.9,511.4z"/>
		<path id="path846-47" class="st2" d="M591.8,479l31.5-16.8l-24.5,24c47.8,5.7,45.7-38.4,45.7-38.4
			C640.7,444.3,595,439.2,591.8,479L591.8,479z"/>
		<path id="path846-9" class="st2" d="M528.3,484.4l-23.6-23.8l30.4,18.6c-1.3-35.8-49.7-34.6-49.7-34.6
			C482.2,447.4,483.8,481.7,528.3,484.4L528.3,484.4z"/>
		<path id="path846-30" class="st2" d="M524.7,438.4l-13.4-27.3l21.3,24.4c10.9-32.1-33.4-43.7-33.4-43.7
			C495.4,393.6,485.4,424.4,524.7,438.4L524.7,438.4z"/>
		<path id="path846-16" class="st2" d="M525.6,383.1l-16.5-15.3l20.5,9.8c-3-29-33.7-19.6-33.7-19.6
			C494.1,361,497.2,388.7,525.6,383.1L525.6,383.1z"/>
		<path id="path846-2" class="st2" d="M480,403.8l-16.6-16.5l20.5,11.3c-3.2-29.6-33.8-22-33.8-22
			C448.3,379.4,451.7,407.7,480,403.8L480,403.8z"/>
		<path id="path846-89-9" class="st2" d="M391.9,475.4l-24.1,2.3l22.4-7.9c-26.2-14-39.6,11.2-39.6,11.2
			C351.7,483.8,376.9,497,391.9,475.4L391.9,475.4z"/>
		<path id="path846-89-9-2" class="st2" d="M395.8,456l-22.2-9.2l23.6,3.5c-15.7-24.4-40.3-8.7-40.3-8.7
			C356.4,444.5,371.6,467.8,395.8,456L395.8,456z"/>
		<path id="path846-89-9-1" class="st2" d="M390.9,428.8l-19.1-8.1l20.4,3.5c-13.1-20.2-34.7-8.2-34.7-8.2
			C357,418.4,369.7,437.6,390.9,428.8z"/>
		<path id="path846-89-9-1-1" class="st2" d="M418.2,415.4l-18.9-16.9l22.8,12.8c-5.5-26.6-37.7-24.1-37.7-24.1
			C382.6,389.4,388.1,414.9,418.2,415.4z"/>
		<path id="path846-89-9-1-5" class="st2" d="M433.3,386.4l-13.4-13.9l16.7,10.6c-2.5-21.4-27.4-19.9-27.4-19.9
			C407.7,365,410.2,385.5,433.3,386.4L433.3,386.4z"/>
		<path id="path846-89-9-1-7" class="st2" d="M465.7,366.5l-16.1-15l19.1,10.6c-5.8-25.5-31.7-20.4-31.7-20.4
			C435.6,344.1,441.4,368.4,465.7,366.5L465.7,366.5z"/>
		<path id="path846-89-9-1-9" class="st2" d="M496.9,347.7L485.2,335l14.7,9.8c-1.9-19.3-24.2-18.3-24.2-18.3
			C474.3,328.1,476.3,346.6,496.9,347.7L496.9,347.7z"/>
		<path id="path846-89-9-1-2" class="st2" d="M534.5,350.6l-11-21.5l17.1,18.8c7.8-26.9-26.8-33.8-26.8-33.8
			C510.8,315.6,503.6,341.4,534.5,350.6L534.5,350.6z"/>
		<path id="path846-89-9-1-20" class="st2" d="M559.5,341.9l3.4-24.5l4.4,24.5c25-21.6-4-42.5-4-42.5
			C559.3,299.7,535.6,320.5,559.5,341.9L559.5,341.9z"/>
		<path id="path846-89-9-1-3" class="st2" d="M472.6,440.5l-20.8-16.3l24.4,11.4c-8.1-28.2-40.7-22-40.7-22
			C433.9,416.3,441.9,443.2,472.6,440.5z"/>
		<path id="path846-89-9-1-29" class="st2" d="M471.4,481.5l-33.5-13.6l35.8,5.9c-23-33.8-61.1-13.8-61.1-13.8
			C411.8,464,434.1,496.2,471.4,481.5L471.4,481.5z"/>
		<path id="path846-89-9-1-58" class="st2" d="M431.1,444.7l-16.4-8l18,4.3c-9.7-17.7-30.5-9.1-30.5-9.1
			C401.7,433.8,411.1,450.7,431.1,444.7z"/>
		<path id="path846-89-9-1-9-0" class="st2" d="M627.2,344.8l18.1-10.4l-14.9,13.9c25.1,0.8,27.3-22.5,27.3-22.5
			C655.9,324.1,631.9,323.6,627.2,344.8L627.2,344.8z"/>
		<path id="path846-89-9-1-9-0-4" class="st2" d="M656.3,361.3l22.5-10.9l-18.5,14.6c31.2,0.8,33.9-23.6,33.9-23.6
			C692,339.6,662.1,339,656.3,361.3z"/>
		<path id="path846-89-9-1-9-0-43" class="st2" d="M693,381.5l18.1-10.4L696.2,385c25.1,0.8,27.3-22.5,27.3-22.5
			C721.7,360.9,697.7,360.3,693,381.5L693,381.5z"/>
		<path id="path846-89-9-1-9-0-7" class="st2" d="M702.9,411.3l27.1-13l-22.3,17.4c37.6,1,40.9-28.2,40.9-28.2
			C746,385.4,709.9,384.7,702.9,411.3L702.9,411.3z"/>
		<path id="path846-89-9-1-9-0-3" class="st2" d="M736.3,426l20.2-5.8l-18,9.9c24.1,6.7,32.3-15.3,32.3-15.3
			C769.5,412.8,746.4,406.6,736.3,426z"/>
		<path id="path846-89-9-1-9-0-40" class="st2" d="M729.5,451.4l25.3-4.7l-23.1,10c28.3,11.2,41.1-14.9,41.1-14.9
			C771.4,439.2,744.2,428.7,729.5,451.4L729.5,451.4z"/>
		<path id="path846-89-9-1-9-0-5" class="st2" d="M733.7,469.4l24.6,7.4l-25-1c20.3,24.6,43.2,4.7,43.2,4.7
			C776.4,477.2,756.8,453.8,733.7,469.4z"/>
		<path id="path846-89-9-1-9-0-57" class="st2" d="M649.7,436.1l25.2-12.9l-20.7,17.2c34.9,1,38-27.8,38-27.8
			C689.7,410.6,656.2,409.9,649.7,436.1z"/>
		<path id="path846-89-9-1-9-0-51" class="st2" d="M596.9,380.7l22.7-11.6L601,384.6c31.5,0.9,34.3-25.1,34.3-25.1
			C633,357.6,602.8,357,596.9,380.7L596.9,380.7z"/>
		<path id="path846-89-9-1-9-0-511" class="st2" d="M586.8,347.4l18-19.4l-11.4,21.9c34.6-9.9,22.8-36.8,22.8-36.8
			C612.7,312,579.6,321.7,586.8,347.4L586.8,347.4z"/>
		<path id="path846-89-9-1-9-0-58" class="st2" d="M693,443.9l20.4-7.3l-17.4,11c26.5,3.9,31.6-17.4,31.6-17.4
			C725.9,428.4,700.5,424.8,693,443.9z"/>
		<path id="path846-89-9-1-9-0-33" class="st2" d="M655.8,522.7l27.8,13.9l-30.5-8.1c16.9,28.8,51.7,16.8,51.7,16.8
			C705.9,542.3,689.5,514.8,655.8,522.7L655.8,522.7z"/>
		<path id="path846-89-9-1-9-0-79" class="st2" d="M611.8,534.5l20.4,10.5l-22-5.5c13.4,23.3,37.4,11.8,37.4,11.8
			C648.2,548.7,635.1,526.5,611.8,534.5L611.8,534.5z"/>
		<path id="path846-89-9-1-9-0-6" class="st2" d="M518.4,540.6l-23.6,3.5l22.1-8.8c-25.2-12.2-39,12.8-39,12.8
			C478.9,550.7,503.1,562.2,518.4,540.6z"/>
		<path id="path846-89-9-1-9-0-6-1" class="st2" d="M471.3,531.1l-24.4,3.6l22.9-9.9c-25.8-14.6-40.4,14.3-40.4,14.3
			C430.4,542.3,455.2,556,471.3,531.1z"/>
		<path id="path846-89-9-1-9-0-43-3" class="st2" d="M644.8,402.7l20.3-11.6l-16.7,15.5c28.1,0.9,30.6-25.1,30.6-25.1
			C677,379.6,650,379,644.8,402.7z"/>
	</g>
</g>
<g id="read">
	<g id="text1206" transform="matrix(1.3678814,0,0,1.4283145,-204.37798,-260.31491)">
		<path id="path1544" d="M322.8,595.9c0-0.3,0-0.5,0-0.7c0-0.2-0.1-0.4-0.2-0.5c-0.1-0.1-0.2-0.2-0.4-0.3s-0.4-0.1-0.8-0.2
			c-0.4,0-1,0-1.7,0l0-0.9c0.6-0.1,1.3-0.1,2-0.2c0.7-0.1,1.5-0.1,2.2-0.1c0.8,0,1.5,0,2.3,0c0.8,0,1.5,0,2.2,0.1
			c0.9,0.1,1.8,0.2,2.6,0.5c0.8,0.2,1.5,0.6,2,1c0.6,0.4,1,1,1.3,1.6c0.3,0.7,0.4,1.5,0.3,2.4c-0.1,0.9-0.3,1.6-0.6,2.3
			c-0.3,0.7-0.8,1.3-1.4,1.8c-0.6,0.5-1.2,0.9-2,1.3s-1.6,0.6-2.5,0.7c0.6,1.2,1.1,2.3,1.6,3.2s0.9,1.7,1.3,2.4
			c0.4,0.7,0.8,1.3,1.1,1.8c0.3,0.5,0.7,0.9,1,1.3c0.2,0.3,0.5,0.6,0.7,0.8c0.2,0.2,0.4,0.4,0.6,0.5c0.2,0.1,0.4,0.2,0.6,0.3
			s0.4,0.1,0.7,0.1c0.3,0,0.5,0,0.7,0c0.2,0,0.5-0.1,0.8-0.2l0.2,0.8c-0.9,0.3-1.6,0.5-2.3,0.6c-0.7,0.1-1.2,0.2-1.6,0.1
			c-0.2,0-0.4-0.1-0.6-0.1c-0.2-0.1-0.4-0.2-0.6-0.3s-0.4-0.3-0.5-0.4c-0.2-0.2-0.4-0.4-0.6-0.6c-0.3-0.4-0.7-0.8-1.1-1.4
			c-0.4-0.6-0.9-1.4-1.4-2.3c-0.5-0.9-1.1-2-1.7-3.2s-1.3-2.6-2-4.3l0-0.1c1.2,0.1,2.1,0,3-0.2c0.8-0.2,1.5-0.5,2-0.9
			c0.5-0.4,0.9-0.9,1.2-1.6c0.3-0.6,0.5-1.3,0.5-2.1c0.1-1.5-0.2-2.7-0.9-3.5c-0.7-0.8-1.9-1.3-3.5-1.5c-0.3,0-0.7,0-1,0
			c-0.3,0-0.6,0-1,0c-0.1,0.5-0.1,1.2-0.2,2c-0.1,0.8-0.2,1.8-0.3,2.9c-0.1,1.1-0.3,2.3-0.4,3.6c-0.2,1.3-0.3,2.6-0.5,4
			c-0.2,1.4-0.3,2.8-0.5,4.3c-0.2,1.5-0.4,3-0.5,4.4l-2.3,0.1l-0.2,0c0.2-1.9,0.5-3.6,0.7-5.3c0.2-1.7,0.4-3.3,0.6-4.9
			c0.2-1.6,0.4-3.1,0.5-4.7C322.5,599.1,322.7,597.6,322.8,595.9L322.8,595.9z"/>
		<path id="path1546" d="M347.2,614.4c0,0,0.1,0.1,0.1,0.1c0.1,0,0.1,0.1,0.2,0.1c0,0,0.1,0.1,0.1,0.1c0,0,0.1,0.1,0,0.1
			c0,0,0,0.1,0,0.1c-0.4,0.5-0.8,0.9-1.3,1.2c-0.4,0.3-0.9,0.6-1.4,0.8c-0.5,0.2-0.9,0.4-1.4,0.4c-0.5,0.1-0.9,0.1-1.4,0.1
			c-0.8-0.1-1.5-0.3-2.1-0.7c-0.6-0.4-1.1-0.9-1.6-1.4s-0.7-1.3-0.9-2c-0.2-0.8-0.3-1.6-0.2-2.4c0.1-0.7,0.2-1.4,0.4-2.1
			c0.2-0.7,0.5-1.3,0.8-1.9c0.3-0.6,0.7-1.2,1.2-1.7c0.5-0.5,1-0.9,1.5-1.3c0.6-0.4,1.2-0.6,1.8-0.8c0.7-0.2,1.3-0.2,2.1-0.2
			c0.5,0,0.9,0.1,1.4,0.3c0.4,0.2,0.8,0.4,1.1,0.7c0.3,0.3,0.5,0.6,0.7,1c0.2,0.4,0.2,0.8,0.2,1.2c-0.1,0.7-0.3,1.2-0.8,1.7
			c-0.5,0.5-1.1,0.8-1.9,1.1c-0.8,0.3-1.7,0.5-2.8,0.6c-1,0.1-2.2,0.2-3.4,0.2l0,0.2c-0.1,0.8,0,1.6,0.1,2.3
			c0.2,0.7,0.4,1.3,0.7,1.8c0.3,0.5,0.7,0.9,1.2,1.2c0.5,0.3,1,0.5,1.6,0.5c0.6,0,1.2,0,1.8-0.3C345.9,615.5,346.5,615,347.2,614.4
			L347.2,614.4z M346,606.5c0-0.3,0-0.6-0.1-0.8c-0.1-0.3-0.2-0.5-0.4-0.7c-0.2-0.2-0.4-0.4-0.6-0.5c-0.2-0.1-0.5-0.2-0.8-0.2
			c-0.4,0-0.8,0-1.2,0.1c-0.4,0.1-0.7,0.3-1,0.5c-0.3,0.2-0.6,0.5-0.8,0.8c-0.2,0.3-0.4,0.7-0.6,1c-0.2,0.4-0.3,0.8-0.4,1.1
			c-0.1,0.4-0.2,0.8-0.3,1.2c0.9,0,1.8,0,2.5-0.1c0.7-0.1,1.4-0.3,1.9-0.5c0.5-0.2,0.9-0.5,1.2-0.8C345.8,607.3,346,606.9,346,606.5
			z"/>
		<path id="path1548" d="M358.3,608.3c0-0.5,0-1-0.1-1.4c-0.1-0.4-0.3-0.7-0.6-1c-0.3-0.3-0.5-0.5-0.9-0.6c-0.3-0.1-0.7-0.2-1-0.3
			c-0.5,0-0.9,0-1.2,0.1c-0.3,0.1-0.6,0.2-0.8,0.3c-0.2,0.2-0.4,0.3-0.5,0.6c-0.1,0.2-0.2,0.5-0.2,0.7c0,0.3,0,0.6,0.1,1
			c0.1,0.3,0.2,0.6,0.4,1l0,0.1c-0.4,0.2-0.8,0.2-1.1,0.2c-0.2,0-0.4-0.1-0.6-0.1c-0.2-0.1-0.3-0.2-0.5-0.3
			c-0.1-0.1-0.2-0.3-0.3-0.5c-0.1-0.2-0.1-0.4-0.1-0.6c0-0.4,0.1-0.7,0.4-1.1c0.2-0.3,0.5-0.6,0.8-0.9s0.7-0.5,1.1-0.7
			c0.4-0.2,0.8-0.3,1.3-0.5c0.4-0.1,0.9-0.2,1.3-0.3c0.4-0.1,0.8-0.1,1.2,0c0.7,0.1,1.3,0.2,1.7,0.4c0.5,0.2,0.8,0.5,1.1,0.9
			c0.3,0.4,0.5,0.8,0.6,1.3c0.1,0.5,0.1,1.1,0.1,1.7c0,0.4-0.1,0.9-0.2,1.4c-0.1,0.5-0.2,1-0.2,1.6c-0.1,0.6-0.2,1.1-0.3,1.7
			c-0.1,0.6-0.1,1.2-0.2,1.8c-0.1,0.9,0,1.7,0.4,2.2c0.3,0.5,0.8,0.8,1.3,0.8c0.5,0,1.1-0.1,1.7-0.4l0.2,0.4c-0.5,0.4-1,0.7-1.5,0.9
			c-0.5,0.2-1.1,0.3-1.6,0.2c-0.4,0-0.8-0.1-1.2-0.3c-0.3-0.2-0.6-0.4-0.9-0.7c-0.2-0.3-0.4-0.7-0.5-1.1c-0.1-0.4-0.1-0.9-0.1-1.5
			c0-0.2,0-0.3,0-0.5c0-0.2,0.1-0.3,0.1-0.5l-0.1,0c-0.3,0.5-0.7,1.1-1.1,1.6c-0.4,0.5-0.8,1-1.3,1.4c-0.5,0.4-1,0.7-1.5,0.9
			c-0.5,0.2-1,0.3-1.6,0.3c-0.4,0-0.9-0.1-1.2-0.3c-0.4-0.2-0.7-0.4-0.9-0.7c-0.2-0.3-0.4-0.6-0.5-1c-0.1-0.4-0.2-0.8-0.1-1.2
			c0-0.6,0.2-1.1,0.4-1.5c0.3-0.5,0.6-0.8,1-1.2c0.4-0.3,0.9-0.6,1.4-0.8c0.5-0.2,1.1-0.4,1.7-0.5c0.6-0.1,1.3-0.2,2-0.2
			c0.7,0,1.4,0,2.1,0c0.1-0.4,0.1-0.8,0.2-1.2C358.2,609.2,358.3,608.7,358.3,608.3L358.3,608.3z M351.8,614.5c0,0.3,0,0.5,0,0.7
			c0,0.2,0.1,0.4,0.2,0.6c0.1,0.2,0.3,0.3,0.4,0.5c0.2,0.1,0.4,0.2,0.7,0.2c0.3,0,0.6,0,0.9-0.1c0.3-0.1,0.6-0.3,1-0.5
			c0.3-0.2,0.6-0.5,0.9-0.8c0.3-0.3,0.6-0.7,0.8-1c0.3-0.4,0.5-0.8,0.6-1.2c0.2-0.4,0.3-0.9,0.4-1.3c-0.5,0-1,0-1.4,0
			c-0.5,0-0.9,0-1.4,0.1c-0.4,0.1-0.8,0.2-1.2,0.3s-0.7,0.3-1,0.6c-0.3,0.2-0.5,0.5-0.7,0.8C351.9,613.7,351.8,614.1,351.8,614.5
			L351.8,614.5z"/>
		<path id="path1550" d="M379.7,593.7c-0.4,1.6-0.7,3.3-1,5c-0.3,1.7-0.7,3.4-0.9,5.1s-0.5,3.4-0.8,5c-0.2,1.7-0.4,3.2-0.5,4.8
			c-0.1,0.7-0.1,1.4-0.1,1.9c0,0.5,0,1,0,1.3c0,0.4,0,0.7,0.1,0.9c0,0.2,0.1,0.4,0.2,0.5c0.1,0.1,0.2,0.2,0.3,0.3
			c0.1,0,0.3,0.1,0.4,0.1c0.3,0,0.6,0,1-0.1c0.4-0.1,0.7-0.2,1.1-0.3l0.1,0.5c-0.2,0.2-0.6,0.3-0.9,0.5c-0.4,0.2-0.7,0.3-1.1,0.5
			s-0.8,0.2-1.2,0.3c-0.4,0.1-0.7,0.1-1,0.1c-0.2,0-0.4-0.1-0.5-0.1c-0.1-0.1-0.3-0.1-0.4-0.3c-0.1-0.1-0.2-0.3-0.2-0.5
			c-0.1-0.2-0.1-0.4-0.1-0.7c0-0.4,0-0.9,0-1.4c0-0.5,0-1.1,0.1-1.7c0-0.6,0.1-1.3,0.2-2c0.1-0.7,0.2-1.3,0.4-2l-0.1,0
			c-0.6,1.3-1.2,2.4-1.9,3.5c-0.7,1-1.3,1.9-2,2.6c-0.7,0.7-1.3,1.2-2,1.6c-0.7,0.4-1.3,0.5-1.9,0.5c-0.6,0-1.1-0.2-1.5-0.6
			c-0.4-0.3-0.7-0.7-1-1.2c-0.2-0.5-0.4-1.1-0.5-1.7c-0.1-0.6-0.1-1.3-0.1-2c0.1-0.8,0.2-1.6,0.4-2.3c0.2-0.8,0.5-1.5,0.9-2.2
			c0.4-0.7,0.8-1.3,1.3-1.8c0.5-0.6,1.1-1,1.7-1.4c0.6-0.4,1.2-0.7,1.9-0.9c0.7-0.2,1.4-0.3,2.1-0.2c0.5,0,1,0.1,1.5,0.3
			c0.5,0.2,1,0.4,1.5,0.8c0.1-1.1,0.2-2.2,0.4-3.4c0.1-1.1,0.3-2.2,0.4-3.3c0.1-1.1,0.3-2.1,0.4-3c0.1-1,0.3-1.8,0.4-2.6
			c0-0.2,0.1-0.3,0.2-0.4c0.1-0.1,0.2-0.2,0.3-0.2c0.1-0.1,0.3-0.1,0.4-0.1c0.2,0,0.3,0,0.5,0C378.9,593.3,379.3,593.4,379.7,593.7
			L379.7,593.7z M375.2,607.1c-0.8-0.5-1.7-0.8-2.6-0.8c-0.6,0-1.2,0-1.8,0.2c-0.5,0.2-1,0.4-1.5,0.7c-0.4,0.3-0.8,0.7-1.2,1.2
			c-0.4,0.5-0.7,0.9-0.9,1.5c-0.2,0.5-0.4,1.1-0.6,1.7c-0.1,0.6-0.2,1.2-0.3,1.8c0,0.2,0,0.4,0,0.7c0,0.3,0,0.5,0,0.8
			c0,0.3,0.1,0.6,0.2,0.9c0.1,0.3,0.2,0.5,0.3,0.8c0.1,0.2,0.3,0.4,0.4,0.6c0.2,0.1,0.4,0.2,0.7,0.2c0.5,0,1-0.1,1.5-0.4
			c0.5-0.3,1-0.7,1.5-1.3c0.5-0.5,1-1.2,1.5-1.9c0.5-0.7,0.9-1.5,1.3-2.2c0.4-0.8,0.7-1.5,1-2.3
			C374.9,608.4,375.1,607.8,375.2,607.1L375.2,607.1z"/>
		<path id="path1552" d="M391.7,602.5c-0.2,0-0.4-0.1-0.6-0.2c-0.2-0.1-0.3-0.2-0.4-0.4c-0.1-0.2-0.2-0.3-0.2-0.5
			c-0.1-0.2-0.1-0.4-0.1-0.6c0-0.3,0.1-0.5,0.2-0.8c0.1-0.2,0.3-0.4,0.4-0.5c0.2-0.1,0.3-0.2,0.5-0.3c0.2-0.1,0.4-0.1,0.6-0.1
			c0.2,0,0.4,0.1,0.6,0.2c0.2,0.1,0.3,0.2,0.4,0.4c0.1,0.2,0.2,0.3,0.3,0.5c0.1,0.2,0.1,0.4,0.1,0.6c0,0.2-0.1,0.5-0.2,0.7
			c-0.1,0.2-0.2,0.4-0.4,0.6c-0.1,0.2-0.3,0.3-0.5,0.4C392.1,602.5,391.9,602.6,391.7,602.5L391.7,602.5z M392.2,607
			c-0.2,0.7-0.3,1.5-0.4,2.2c-0.1,0.7-0.2,1.4-0.3,2.1c-0.1,0.7-0.2,1.3-0.2,2c-0.1,0.6-0.1,1.2-0.1,1.7c0,0.7-0.1,1.3-0.1,1.7
			c0,0.5,0,0.9,0,1.2s0.1,0.6,0.1,0.8c0.1,0.2,0.1,0.4,0.2,0.5c0.1,0.1,0.2,0.2,0.3,0.2c0.1,0,0.3,0.1,0.5,0.1c0.3,0,0.6,0,1-0.1
			c0.4-0.1,0.7-0.2,1.1-0.3l0.2,0.5c-0.2,0.2-0.6,0.3-0.9,0.5c-0.4,0.2-0.7,0.3-1.1,0.5c-0.4,0.1-0.8,0.2-1.2,0.3
			c-0.4,0.1-0.7,0.1-1,0.1c-0.2,0-0.3,0-0.5-0.1c-0.1,0-0.3-0.1-0.4-0.2c-0.1-0.1-0.2-0.3-0.3-0.5c-0.1-0.2-0.1-0.5-0.2-0.9
			c0-0.4,0-0.9,0-1.5c0-0.6,0-1.3,0.1-2.1c0-0.5,0.1-1,0.1-1.6c0.1-0.6,0.1-1.3,0.2-2c0.1-0.7,0.1-1.4,0.2-2.2
			c0.1-0.8,0.2-1.6,0.3-2.4c0-0.2,0.1-0.3,0.2-0.4c0.1-0.1,0.2-0.2,0.3-0.2c0.1-0.1,0.3-0.1,0.4-0.1c0.1,0,0.3,0,0.4,0
			C391.5,606.6,391.9,606.8,392.2,607L392.2,607z"/>
		<path id="path1554" d="M397.7,609.9c0-0.3,0-0.5,0-0.7c0-0.2-0.1-0.3-0.2-0.4c-0.1-0.1-0.2-0.2-0.3-0.3c-0.1-0.1-0.3-0.1-0.4-0.1
			c-0.2,0-0.5,0-0.8,0c-0.3,0-0.7,0.1-1.1,0.2l-0.1-0.7c0.5-0.1,0.9-0.3,1.4-0.4c0.4-0.1,0.8-0.2,1.2-0.3s0.7-0.1,1-0.2
			c0.3,0,0.5,0,0.6,0c0.4,0,0.7,0.2,0.9,0.4c0.2,0.2,0.3,0.6,0.3,1.2c0,0.1,0,0.2,0,0.5c0,0.2-0.1,0.5-0.1,0.9
			c0,0.4-0.1,0.8-0.2,1.3c-0.1,0.5-0.1,1-0.2,1.5c-0.1,0.5-0.2,1.1-0.2,1.6c-0.1,0.6-0.2,1.1-0.3,1.7l0.1,0c0.6-1.6,1.2-3,1.9-4.1
			c0.6-1.1,1.3-2,1.9-2.7c0.6-0.7,1.2-1.2,1.8-1.5c0.6-0.3,1.2-0.4,1.7-0.4c0.4,0,0.7,0.1,1,0.3c0.3,0.2,0.6,0.4,0.9,0.7
			c0.2,0.3,0.4,0.7,0.6,1.2c0.1,0.5,0.2,1.1,0.1,1.7c0,0.2,0,0.5-0.1,0.8c0,0.3-0.1,0.7-0.1,1.1s-0.1,0.8-0.2,1.3
			c-0.1,0.4-0.1,0.9-0.2,1.3c-0.1,0.4-0.1,0.8-0.2,1.2c0,0.4-0.1,0.7-0.1,1c0,0.5,0,0.9,0,1.2c0,0.3,0.1,0.6,0.2,0.8
			c0.1,0.2,0.2,0.3,0.4,0.4c0.2,0.1,0.4,0.1,0.6,0.1c0.3,0,0.7,0,1.1-0.1c0.4-0.1,0.7-0.2,1.1-0.3l0.2,0.5c-0.2,0.2-0.6,0.3-0.9,0.5
			s-0.8,0.3-1.2,0.5c-0.4,0.1-0.8,0.2-1.2,0.3c-0.4,0.1-0.7,0.1-1,0.1c-0.4,0-0.6-0.1-0.8-0.3c-0.2-0.2-0.3-0.5-0.4-0.8
			c-0.1-0.3-0.1-0.7-0.1-1.2c0-0.4,0-0.9,0-1.4c0-0.6,0.1-1.2,0.2-1.9c0.1-0.6,0.2-1.3,0.3-1.8s0.2-1.1,0.2-1.6
			c0.1-0.5,0.1-0.9,0.1-1.1c0-0.8-0.1-1.3-0.3-1.7c-0.3-0.4-0.6-0.6-1.1-0.6c-0.4,0-0.8,0.1-1.2,0.4s-0.9,0.7-1.3,1.2
			c-0.4,0.5-0.9,1.2-1.3,1.9c-0.4,0.7-0.8,1.5-1.2,2.4c-0.4,0.9-0.7,1.8-0.9,2.7s-0.4,1.9-0.6,2.9l-2.1,0.1l-0.2,0
			c0.1-0.6,0.2-1.3,0.3-2c0.1-0.7,0.2-1.5,0.3-2.2c0.1-0.8,0.2-1.5,0.2-2.2c0.1-0.7,0.1-1.4,0.2-2.1c0.1-0.6,0.1-1.2,0.2-1.7
			C397.6,610.6,397.7,610.2,397.7,609.9L397.7,609.9z"/>
		<path id="path1556" d="M425.4,601.6c-0.3,1.2-0.6,2.5-0.9,3.8c-0.3,1.3-0.5,2.6-0.7,3.9c0.3,0,0.6,0.1,0.9,0.1
			c0.3,0,0.6,0,0.8,0.1c0.3,0,0.5,0,0.7,0c0.2,0,0.4,0,0.5,0c0.6,0,1.1,0,1.5,0c0,0.1,0,0.2,0.1,0.3c0,0.1,0,0.2,0,0.3
			c0,0.3-0.1,0.5-0.4,0.5c-0.2,0.1-0.6,0.1-1,0.1c-0.4,0-0.9-0.1-1.4-0.2c-0.5-0.1-1.1-0.2-1.7-0.2c-0.1,0.7-0.2,1.4-0.3,2
			c-0.1,0.7-0.2,1.3-0.2,1.9c-0.1,0.6-0.1,1.1-0.1,1.6s-0.1,0.9-0.1,1.3c0,0.7,0,1.3,0,1.9c0,0.5,0.1,1,0.3,1.4
			c0.2,0.4,0.4,0.7,0.7,0.9s0.7,0.3,1.2,0.4c0.4,0,0.7,0,1.2-0.1c0.4-0.1,0.9-0.3,1.5-0.5c0.2,0.2,0.3,0.4,0.3,0.7
			c-0.4,0.2-0.8,0.5-1.3,0.7c-0.4,0.2-0.8,0.4-1.2,0.5s-0.8,0.2-1.2,0.3c-0.4,0.1-0.7,0.1-1.1,0.1c-0.4,0-0.8-0.1-1.2-0.3
			c-0.3-0.2-0.6-0.5-0.9-0.9c-0.2-0.4-0.4-1-0.5-1.7c-0.1-0.7-0.1-1.6-0.1-2.6c0-0.6,0.1-1.2,0.1-1.8c0.1-0.6,0.1-1.3,0.2-1.9
			c0.1-0.6,0.1-1.3,0.2-1.9c0.1-0.6,0.2-1.3,0.3-1.9c-0.5,0-1,0-1.4,0c-0.4,0-0.8,0-1.1,0.1c0,0,0-0.1,0-0.1c0-0.1,0.1-0.3,0.2-0.4
			c0.1-0.1,0.3-0.2,0.6-0.3c0.2-0.1,0.5-0.1,0.9-0.2s0.7-0.1,1.1-0.1c0.2-1.4,0.5-2.6,0.7-3.8c0.2-1.2,0.5-2.3,0.7-3.2
			c0-0.2,0.1-0.3,0.2-0.4c0.1-0.1,0.2-0.2,0.3-0.2s0.2-0.1,0.4-0.1s0.3,0,0.4,0c0.2,0,0.4,0,0.6,0.1
			C425.1,601.4,425.3,601.5,425.4,601.6L425.4,601.6z"/>
		<path id="path1558" d="M432.2,617.9c0.6-1.6,1.2-3,1.8-4.1c0.6-1.1,1.2-2,1.9-2.7c0.6-0.7,1.2-1.2,1.8-1.5
			c0.6-0.3,1.2-0.4,1.7-0.4c0.4,0,0.7,0.1,1,0.3c0.3,0.2,0.6,0.4,0.9,0.7c0.3,0.3,0.4,0.7,0.6,1.2s0.2,1,0.2,1.7
			c0,0.2,0,0.5-0.1,0.8c0,0.3-0.1,0.7-0.1,1.1c-0.1,0.4-0.1,0.8-0.2,1.3c-0.1,0.5-0.1,0.9-0.2,1.3c-0.1,0.4-0.1,0.9-0.2,1.3
			c0,0.4-0.1,0.7-0.1,1c0,0.5,0,0.9,0,1.2c0,0.3,0.1,0.6,0.2,0.8c0.1,0.2,0.2,0.3,0.4,0.4c0.2,0.1,0.4,0.1,0.6,0.1
			c0.3,0,0.7,0,1.1-0.1c0.4-0.1,0.7-0.2,1.1-0.3l0.2,0.5c-0.2,0.2-0.5,0.4-0.9,0.5c-0.4,0.2-0.8,0.3-1.2,0.5
			c-0.4,0.1-0.8,0.3-1.2,0.3c-0.4,0.1-0.7,0.1-1,0.1c-0.4,0-0.6-0.1-0.8-0.3s-0.3-0.5-0.4-0.8c-0.1-0.3-0.1-0.7-0.1-1.2
			c0-0.4,0-0.9,0-1.4c0-0.6,0.1-1.2,0.2-1.9c0.1-0.6,0.2-1.3,0.2-1.8c0.1-0.6,0.2-1.1,0.2-1.6c0.1-0.5,0.1-0.9,0.1-1.2
			c0-0.7-0.1-1.3-0.3-1.6c-0.3-0.4-0.6-0.6-1.1-0.6c-0.4,0-0.8,0.1-1.2,0.4c-0.4,0.3-0.9,0.7-1.3,1.3c-0.4,0.5-0.9,1.2-1.3,1.9
			c-0.4,0.7-0.8,1.5-1.2,2.4c-0.3,0.9-0.6,1.8-0.9,2.7c-0.2,1-0.4,1.9-0.5,2.9l-2.1,0.1l-0.2,0c0.1-0.8,0.2-1.6,0.3-2.5
			c0.1-0.9,0.2-1.9,0.3-2.9c0.1-1,0.2-2.1,0.3-3.2c0.1-1.1,0.2-2.3,0.4-3.4c0.1-1.2,0.2-2.3,0.4-3.5s0.2-2.4,0.4-3.5
			c0.1-1.2,0.2-2.3,0.4-3.4c0.1-1.1,0.2-2.2,0.3-3.2c0-0.2,0.1-0.3,0.2-0.4c0.1-0.1,0.2-0.2,0.3-0.3c0.1-0.1,0.3-0.1,0.5-0.1
			c0.2,0,0.3,0,0.5,0c0.4,0,0.8,0.1,1.2,0.4c-0.2,1.3-0.4,2.5-0.6,3.6c-0.2,1.1-0.3,2.1-0.5,3.1c-0.1,0.9-0.3,1.8-0.4,2.6
			c-0.1,0.8-0.2,1.6-0.3,2.3c-0.1,0.7-0.2,1.5-0.3,2.2c-0.1,0.7-0.2,1.4-0.3,2.2c-0.1,0.7-0.2,1.5-0.3,2.3
			C432.3,616.1,432.2,617,432.2,617.9L432.2,617.9z"/>
		<path id="path1560" d="M455.5,621.2c0,0,0.1,0.1,0.1,0.1c0.1,0,0.1,0.1,0.2,0.1c0.1,0,0.1,0.1,0.1,0.1c0,0,0.1,0.1,0.1,0.1
			c0,0,0,0.1,0,0.1c-0.4,0.5-0.8,0.9-1.2,1.3c-0.4,0.4-0.9,0.6-1.3,0.9c-0.5,0.2-0.9,0.4-1.4,0.5c-0.5,0.1-0.9,0.1-1.4,0.1
			c-0.8,0-1.5-0.2-2.1-0.6c-0.6-0.3-1.2-0.8-1.6-1.4c-0.4-0.6-0.8-1.2-1-2c-0.2-0.8-0.3-1.6-0.3-2.4c0-0.7,0.1-1.4,0.3-2.1
			c0.2-0.7,0.4-1.3,0.8-2c0.3-0.6,0.7-1.2,1.1-1.7c0.4-0.5,0.9-1,1.5-1.4c0.6-0.4,1.1-0.7,1.8-0.9c0.6-0.2,1.3-0.3,2.1-0.2
			c0.5,0,0.9,0.1,1.4,0.3c0.4,0.1,0.8,0.4,1.1,0.6c0.3,0.3,0.6,0.6,0.7,0.9s0.3,0.8,0.2,1.2c0,0.7-0.3,1.2-0.7,1.7
			c-0.5,0.5-1.1,0.9-1.8,1.2c-0.8,0.3-1.7,0.5-2.7,0.7c-1,0.2-2.2,0.3-3.4,0.3l0,0.2c0,0.8,0,1.6,0.2,2.3c0.2,0.7,0.4,1.3,0.8,1.8
			c0.3,0.5,0.8,0.9,1.3,1.2s1,0.5,1.6,0.5c0.6,0,1.2-0.1,1.8-0.3C454.2,622.3,454.9,621.8,455.5,621.2L455.5,621.2z M454,613.3
			c0-0.3,0-0.6-0.1-0.8c-0.1-0.3-0.2-0.5-0.4-0.7c-0.2-0.2-0.4-0.4-0.6-0.5c-0.2-0.1-0.5-0.2-0.8-0.2c-0.4,0-0.8,0-1.2,0.2
			c-0.4,0.1-0.7,0.3-1,0.6c-0.3,0.2-0.5,0.5-0.8,0.9c-0.2,0.3-0.4,0.7-0.6,1.1c-0.2,0.4-0.3,0.8-0.4,1.2c-0.1,0.4-0.2,0.8-0.2,1.2
			c0.9,0,1.8-0.1,2.5-0.2c0.7-0.1,1.4-0.3,1.9-0.5c0.5-0.2,0.9-0.5,1.2-0.8C453.9,614.1,454,613.7,454,613.3L454,613.3z"/>
		<path id="path1562" d="M467,613.5c0-0.3,0-0.5,0-0.7c0-0.2-0.1-0.3-0.2-0.4c-0.1-0.1-0.2-0.2-0.3-0.2c-0.1-0.1-0.3-0.1-0.4-0.1
			c-0.2,0-0.5,0-0.8,0.1s-0.7,0.1-1.1,0.2l-0.1-0.7c0.5-0.1,0.9-0.3,1.3-0.4c0.4-0.1,0.8-0.2,1.2-0.3c0.4-0.1,0.7-0.1,1-0.2
			c0.3,0,0.5-0.1,0.6-0.1c0.4,0,0.7,0.1,0.9,0.4c0.2,0.2,0.3,0.6,0.3,1.2c0,0.1,0,0.2,0,0.5c0,0.2-0.1,0.5-0.1,0.9
			c0,0.4-0.1,0.8-0.1,1.3c-0.1,0.5-0.1,1-0.2,1.5c-0.1,0.5-0.1,1.1-0.2,1.7c-0.1,0.6-0.2,1.1-0.2,1.7l0.1,0c0.6-1.7,1.1-3.1,1.8-4.2
			c0.6-1.1,1.2-2.1,1.8-2.7c0.6-0.7,1.2-1.2,1.8-1.5s1.2-0.4,1.7-0.4c0.4,0,0.7,0.1,1,0.2s0.6,0.4,0.9,0.7c0.3,0.3,0.5,0.7,0.6,1.2
			c0.1,0.5,0.2,1,0.2,1.7c0,0.2,0,0.5-0.1,0.8c0,0.3-0.1,0.7-0.1,1.1c0,0.4-0.1,0.8-0.2,1.3c-0.1,0.4-0.1,0.9-0.2,1.3
			s-0.1,0.8-0.1,1.2c0,0.4-0.1,0.7-0.1,1c0,0.5,0,0.9,0,1.2c0,0.3,0.1,0.6,0.2,0.8c0.1,0.2,0.2,0.3,0.4,0.4c0.2,0.1,0.4,0.1,0.6,0.1
			c0.3,0,0.7,0,1.1-0.1c0.4-0.1,0.7-0.2,1.1-0.4l0.2,0.5c-0.2,0.2-0.5,0.4-0.9,0.5c-0.4,0.2-0.7,0.3-1.2,0.5
			c-0.4,0.1-0.8,0.3-1.2,0.3c-0.4,0.1-0.7,0.1-1,0.1c-0.4,0-0.6-0.1-0.8-0.3s-0.3-0.5-0.4-0.8c-0.1-0.3-0.1-0.7-0.2-1.1
			c0-0.4,0-0.9,0-1.4c0-0.6,0.1-1.2,0.1-1.9c0.1-0.6,0.1-1.3,0.2-1.8s0.1-1.1,0.2-1.6c0.1-0.5,0.1-0.9,0.1-1.1
			c0-0.8-0.1-1.3-0.4-1.7c-0.3-0.4-0.6-0.6-1.1-0.6c-0.4,0-0.8,0.1-1.2,0.4c-0.4,0.3-0.9,0.7-1.3,1.3c-0.4,0.5-0.9,1.2-1.3,1.9
			c-0.4,0.7-0.8,1.5-1.1,2.4c-0.3,0.9-0.6,1.8-0.9,2.7c-0.2,1-0.4,1.9-0.5,2.9l-2,0.2l-0.2,0c0.1-0.6,0.1-1.3,0.2-2s0.1-1.5,0.2-2.2
			c0.1-0.8,0.1-1.5,0.2-2.2c0.1-0.7,0.1-1.4,0.2-2.1c0.1-0.6,0.1-1.2,0.1-1.7C467,614.2,467,613.8,467,613.5L467,613.5z"/>
		<path id="path1564" d="M490.4,615.5c0-0.5-0.1-1-0.2-1.3c-0.2-0.4-0.4-0.7-0.6-0.9c-0.3-0.2-0.6-0.4-0.9-0.6
			c-0.3-0.1-0.7-0.2-1-0.2c-0.5,0-0.9,0-1.2,0.1c-0.3,0.1-0.6,0.2-0.8,0.4c-0.2,0.2-0.4,0.4-0.4,0.6c-0.1,0.2-0.1,0.5-0.2,0.7
			c0,0.3,0,0.6,0.1,1c0.1,0.3,0.3,0.6,0.5,0.9l0,0.1c-0.4,0.2-0.8,0.2-1.1,0.2c-0.2,0-0.4,0-0.6-0.1c-0.2-0.1-0.3-0.2-0.5-0.3
			c-0.1-0.1-0.2-0.3-0.3-0.5c-0.1-0.2-0.1-0.4-0.1-0.6c0-0.4,0.1-0.7,0.3-1.1c0.2-0.3,0.5-0.6,0.8-0.9s0.7-0.5,1.1-0.7
			c0.4-0.2,0.8-0.4,1.3-0.5c0.4-0.1,0.9-0.2,1.3-0.3c0.4-0.1,0.8-0.1,1.2-0.1c0.7,0,1.3,0.1,1.7,0.3c0.5,0.2,0.9,0.5,1.2,0.8
			c0.3,0.4,0.5,0.8,0.6,1.3c0.1,0.5,0.2,1.1,0.2,1.7c0,0.4,0,0.9-0.1,1.4c0,0.5-0.1,1.1-0.2,1.6c-0.1,0.6-0.1,1.1-0.2,1.7
			c-0.1,0.6-0.1,1.2-0.1,1.8c0,0.9,0.1,1.6,0.4,2.1c0.3,0.5,0.8,0.7,1.4,0.7c0.5,0,1.1-0.2,1.7-0.5l0.3,0.4
			c-0.5,0.4-0.9,0.7-1.5,0.9c-0.5,0.2-1.1,0.3-1.6,0.3c-0.4,0-0.8-0.1-1.2-0.3c-0.4-0.2-0.7-0.4-0.9-0.7c-0.3-0.3-0.4-0.7-0.6-1.1
			c-0.1-0.4-0.2-0.9-0.2-1.5c0-0.2,0-0.3,0-0.5c0-0.2,0-0.3,0.1-0.5l-0.1,0c-0.3,0.6-0.6,1.1-1,1.6c-0.4,0.5-0.8,1-1.3,1.4
			c-0.4,0.4-0.9,0.7-1.4,1c-0.5,0.3-1,0.4-1.6,0.3c-0.4,0-0.9-0.1-1.2-0.3c-0.4-0.2-0.7-0.4-0.9-0.7c-0.3-0.3-0.4-0.6-0.6-1
			c-0.1-0.4-0.2-0.8-0.2-1.2c0-0.6,0.1-1.1,0.4-1.6c0.2-0.5,0.5-0.9,0.9-1.2c0.4-0.4,0.8-0.7,1.4-0.9c0.5-0.3,1.1-0.5,1.7-0.6
			c0.6-0.2,1.3-0.3,2-0.3c0.7-0.1,1.4-0.1,2.1-0.1c0.1-0.4,0.1-0.8,0.1-1.2C490.4,616.4,490.4,616,490.4,615.5L490.4,615.5z
			 M484.2,622c0,0.3,0,0.5,0.1,0.7c0.1,0.2,0.1,0.4,0.2,0.6c0.1,0.2,0.3,0.3,0.4,0.4c0.2,0.1,0.4,0.2,0.7,0.2c0.3,0,0.6,0,0.9-0.2
			c0.3-0.1,0.6-0.3,0.9-0.5c0.3-0.2,0.6-0.5,0.9-0.8c0.3-0.3,0.6-0.7,0.8-1.1c0.2-0.4,0.4-0.8,0.6-1.2c0.2-0.4,0.3-0.9,0.3-1.3
			c-0.5,0-1,0-1.4,0.1c-0.5,0-0.9,0.1-1.4,0.2c-0.4,0.1-0.8,0.2-1.2,0.4c-0.4,0.2-0.7,0.4-1,0.6c-0.3,0.2-0.5,0.5-0.6,0.9
			C484.3,621.2,484.2,621.6,484.2,622L484.2,622z"/>
		<path id="path1566" d="M495.3,612.7c0.5-0.2,0.9-0.3,1.3-0.4c0.4-0.1,0.8-0.2,1.2-0.3c0.4-0.1,0.7-0.2,1-0.2
			c0.3,0,0.5-0.1,0.6-0.1c0.4,0,0.7,0.1,0.9,0.4c0.2,0.2,0.3,0.6,0.3,1.2c0,0.1,0,0.4-0.1,0.8c0,0.4-0.1,1-0.2,1.6
			c-0.1,0.6-0.1,1.4-0.2,2.2c-0.1,0.8-0.2,1.7-0.3,2.6l0.1,0c0.5-1.6,1-3,1.6-4.1c0.5-1.1,1.1-2,1.6-2.7c0.6-0.7,1.1-1.2,1.6-1.4
			c0.5-0.3,1.1-0.4,1.6-0.4c0.4,0,0.8,0.1,1.1,0.4s0.6,0.5,0.7,0.9c0.2,0.4,0.3,0.8,0.4,1.2c0.1,0.5,0.1,0.9,0.1,1.4
			c0,0.4,0,0.8-0.1,1.3c0,0.5-0.1,0.9-0.1,1.4c-0.1,0.4-0.1,0.9-0.2,1.3c0,0.4-0.1,0.7-0.1,1l0.1,0c0.5-1.7,1-3.1,1.6-4.2
			c0.6-1.1,1.1-2,1.7-2.7c0.6-0.7,1.1-1.2,1.7-1.4c0.5-0.3,1.1-0.4,1.6-0.4c0.3,0,0.6,0.1,0.9,0.2c0.3,0.1,0.6,0.4,0.8,0.7
			c0.2,0.3,0.4,0.7,0.5,1.2c0.1,0.5,0.2,1.1,0.2,1.7c0,0.2,0,0.4-0.1,0.8c0,0.3-0.1,0.7-0.1,1.1c0,0.4-0.1,0.8-0.2,1.3
			c-0.1,0.4-0.1,0.9-0.1,1.3c0,0.4-0.1,0.9-0.1,1.2c0,0.4,0,0.7-0.1,1c0,0.5,0,0.9,0,1.2c0,0.3,0.1,0.6,0.2,0.8
			c0.1,0.2,0.2,0.3,0.4,0.4c0.2,0.1,0.4,0.1,0.6,0.1c0.3,0,0.7,0,1.1-0.1c0.4-0.1,0.7-0.2,1.1-0.4l0.2,0.5c-0.2,0.2-0.5,0.4-0.9,0.6
			c-0.4,0.2-0.7,0.4-1.1,0.5c-0.4,0.2-0.8,0.3-1.2,0.4c-0.4,0.1-0.7,0.1-1,0.1c-0.4,0-0.6-0.1-0.8-0.3c-0.2-0.2-0.3-0.5-0.4-0.8
			c-0.1-0.3-0.1-0.7-0.2-1.1c0-0.4,0-0.9,0-1.4c0-0.6,0.1-1.2,0.1-1.9c0.1-0.7,0.1-1.3,0.2-1.9c0.1-0.6,0.1-1.1,0.2-1.6
			c0.1-0.5,0.1-0.9,0.1-1.1c0-0.7-0.1-1.2-0.3-1.6c-0.2-0.4-0.6-0.6-1-0.6c-0.3,0-0.7,0.1-1.1,0.5c-0.4,0.3-0.8,0.7-1.2,1.3
			c-0.4,0.5-0.8,1.2-1.1,1.9c-0.4,0.7-0.7,1.5-1,2.4c-0.3,0.9-0.6,1.8-0.8,2.7c-0.2,1-0.4,1.9-0.4,2.9l-2,0.2l-0.2,0
			c0.1-1.4,0.2-2.6,0.3-3.6c0.1-1.1,0.2-2,0.2-2.8c0.1-0.8,0.1-1.5,0.2-2c0-0.5,0.1-1,0.1-1.4c0-0.7-0.1-1.3-0.3-1.7
			c-0.2-0.4-0.6-0.6-0.9-0.6c-0.3,0-0.7,0.1-1.1,0.4c-0.4,0.3-0.8,0.7-1.2,1.2c-0.4,0.5-0.8,1.2-1.1,1.9c-0.4,0.7-0.7,1.5-1,2.4
			c-0.3,0.9-0.6,1.8-0.8,2.7c-0.2,1-0.4,1.9-0.4,2.9l-2,0.2l-0.2,0c0.1-0.6,0.1-1.3,0.2-2c0.1-0.7,0.1-1.5,0.2-2.2
			c0.1-0.8,0.1-1.5,0.2-2.2c0.1-0.7,0.1-1.4,0.1-2.1c0-0.6,0.1-1.2,0.1-1.7c0-0.5,0-0.9,0.1-1.2c0-0.3,0-0.5,0-0.7s-0.1-0.3-0.2-0.4
			c-0.1-0.1-0.2-0.2-0.3-0.2c-0.1,0-0.3-0.1-0.4-0.1c-0.2,0-0.5,0-0.8,0.1c-0.3,0.1-0.7,0.1-1.1,0.2L495.3,612.7z"/>
		<path id="path1568" d="M530.9,623.5c0,0,0.1,0.1,0.1,0.1c0.1,0,0.1,0.1,0.2,0.1c0.1,0,0.1,0.1,0.1,0.1c0,0,0.1,0.1,0.1,0.1
			c0,0,0,0.1,0,0.1c-0.4,0.5-0.8,0.9-1.2,1.3c-0.4,0.4-0.9,0.7-1.3,0.9c-0.5,0.2-0.9,0.4-1.4,0.5c-0.5,0.1-0.9,0.2-1.4,0.2
			c-0.8,0-1.5-0.2-2.1-0.5s-1.2-0.8-1.7-1.3s-0.8-1.2-1.1-2c-0.2-0.8-0.4-1.6-0.3-2.4c0-0.7,0.1-1.4,0.3-2.1c0.2-0.7,0.4-1.4,0.7-2
			c0.3-0.6,0.7-1.2,1.1-1.7c0.4-0.5,0.9-1,1.4-1.4c0.5-0.4,1.1-0.7,1.8-0.9c0.6-0.2,1.3-0.3,2.1-0.3c0.5,0,0.9,0.1,1.4,0.2
			c0.4,0.1,0.8,0.3,1.1,0.6c0.3,0.2,0.6,0.6,0.8,0.9s0.3,0.8,0.3,1.2c0,0.7-0.2,1.2-0.7,1.7c-0.4,0.5-1,0.9-1.8,1.2
			c-0.8,0.3-1.7,0.6-2.7,0.8c-1,0.2-2.1,0.3-3.3,0.4l0,0.2c0,0.8,0.1,1.6,0.3,2.3c0.2,0.7,0.5,1.3,0.8,1.8c0.4,0.5,0.8,0.9,1.3,1.2
			c0.5,0.3,1,0.4,1.6,0.4c0.6,0,1.2-0.1,1.8-0.4C529.7,624.6,530.3,624.2,530.9,623.5L530.9,623.5z M529.3,615.6
			c0-0.3,0-0.6-0.1-0.8c-0.1-0.3-0.2-0.5-0.4-0.7c-0.2-0.2-0.4-0.4-0.6-0.5c-0.2-0.1-0.5-0.2-0.8-0.2c-0.4,0-0.8,0.1-1.2,0.2
			s-0.7,0.3-0.9,0.6c-0.3,0.2-0.5,0.5-0.7,0.9c-0.2,0.3-0.4,0.7-0.6,1.1c-0.2,0.4-0.3,0.8-0.4,1.2c-0.1,0.4-0.2,0.8-0.2,1.2
			c0.9,0,1.8-0.1,2.5-0.3c0.7-0.1,1.4-0.3,1.9-0.6c0.5-0.2,0.9-0.5,1.2-0.9C529.1,616.5,529.2,616.1,529.3,615.6L529.3,615.6z"/>
		<path id="path1570" d="M540.3,621.1c0-0.7,0.1-1.3,0.2-2c0.1-0.7,0.4-1.3,0.6-2c0.3-0.6,0.6-1.2,1-1.8c0.4-0.6,0.9-1,1.4-1.4
			c0.5-0.4,1.1-0.7,1.7-1s1.3-0.3,2.1-0.3c0.8,0,1.6,0.2,2.2,0.6c0.6,0.4,1.2,0.8,1.6,1.4c0.4,0.6,0.7,1.2,1,2
			c0.2,0.7,0.3,1.5,0.3,2.3c0,0.7-0.1,1.3-0.2,2c-0.1,0.7-0.4,1.3-0.6,2c-0.3,0.6-0.6,1.2-1,1.8c-0.4,0.5-0.9,1-1.4,1.4
			c-0.5,0.4-1.1,0.7-1.7,1s-1.3,0.3-2.1,0.3c-0.8,0-1.6-0.2-2.2-0.6c-0.6-0.4-1.2-0.8-1.6-1.4c-0.4-0.6-0.7-1.2-1-2
			C540.4,622.6,540.3,621.9,540.3,621.1L540.3,621.1z M542.6,620.2c0,0.4,0,0.9,0.1,1.3c0.1,0.5,0.2,0.9,0.3,1.3
			c0.1,0.4,0.3,0.8,0.5,1.2c0.2,0.4,0.5,0.7,0.7,1c0.3,0.3,0.6,0.5,1,0.7c0.4,0.2,0.8,0.2,1.2,0.2c0.5,0,0.9-0.1,1.3-0.3
			c0.4-0.2,0.7-0.5,0.9-0.8c0.3-0.3,0.5-0.7,0.7-1.2c0.2-0.4,0.3-0.9,0.4-1.3c0.1-0.5,0.2-0.9,0.2-1.4c0.1-0.5,0.1-0.9,0.1-1.3
			c0-0.4,0-0.9-0.1-1.3c-0.1-0.5-0.2-0.9-0.3-1.3c-0.1-0.4-0.3-0.8-0.5-1.2c-0.2-0.4-0.5-0.7-0.7-1c-0.3-0.3-0.6-0.5-1-0.7
			c-0.4-0.2-0.8-0.2-1.2-0.2c-0.5,0-0.9,0.1-1.3,0.3c-0.4,0.2-0.7,0.5-0.9,0.8c-0.3,0.3-0.5,0.7-0.7,1.2c-0.2,0.4-0.3,0.9-0.4,1.3
			c-0.1,0.5-0.2,0.9-0.2,1.4C542.6,619.4,542.6,619.8,542.6,620.2L542.6,620.2z"/>
		<path id="path1572" d="M558.9,613.5c0.3,0,0.6,0,0.9,0c0.3,0,0.6,0,0.8,0c0.3,0,0.5,0,0.7,0c0.2,0,0.4,0,0.5,0c0.3,0,0.6,0,0.8,0
			c0.3,0,0.5,0,0.7-0.1c0.1,0.2,0.1,0.4,0.1,0.6c0,0.3-0.1,0.5-0.4,0.6c-0.2,0.1-0.6,0.1-1,0.1c-0.4,0-1,0-1.5-0.1
			c-0.6-0.1-1.2-0.1-1.8-0.2c0,0.8-0.1,1.6-0.1,2.5c0,0.9-0.1,1.9-0.2,2.8c-0.1,1-0.2,2-0.3,3c-0.1,1-0.2,2-0.4,2.9
			c-0.1,1-0.3,1.9-0.5,2.7c-0.2,0.9-0.4,1.7-0.7,2.4c-0.4,1.1-0.8,2-1.3,2.8c-0.5,0.7-1,1.3-1.6,1.8c-0.5,0.5-1.1,0.8-1.7,1
			c-0.6,0.2-1.2,0.3-1.8,0.3c-0.5,0-1-0.1-1.4-0.2c-0.4-0.1-0.8-0.3-1.1-0.5c-0.3-0.2-0.6-0.4-0.7-0.7c-0.2-0.2-0.3-0.5-0.3-0.8
			c0-0.2,0-0.3,0.1-0.5c0.1-0.1,0.2-0.3,0.3-0.4c0.1-0.1,0.3-0.2,0.5-0.3c0.2-0.1,0.4-0.1,0.6-0.1c0.2,0.3,0.4,0.6,0.6,0.9
			c0.2,0.2,0.5,0.4,0.7,0.6c0.3,0.2,0.5,0.3,0.8,0.3s0.6,0.1,0.8,0.1c0.7,0,1.4-0.2,1.9-0.7c0.5-0.5,1-1.2,1.3-2
			c0.4-0.9,0.7-2,0.9-3.2s0.4-2.6,0.5-4.2c0.1-1.5,0.2-3.2,0.3-5c0.1-1.8,0.1-3.7,0.1-5.6c-0.6,0-1.2,0-1.7,0.1
			c-0.5,0-1,0.1-1.3,0.2c0-0.1,0-0.1,0-0.2c0-0.2,0.1-0.3,0.2-0.4c0.2-0.1,0.4-0.3,0.6-0.4c0.3-0.1,0.6-0.2,1-0.2
			c0.4-0.1,0.8-0.1,1.3-0.1c0-0.6,0.1-1.2,0.1-1.7c0-0.6,0.1-1.1,0.2-1.6c0.1-0.5,0.2-1.1,0.2-1.6c0.1-0.5,0.2-1.1,0.4-1.7
			c0.2-0.8,0.4-1.4,0.7-2c0.3-0.6,0.6-1.1,1-1.6c0.4-0.5,0.7-0.9,1.2-1.2c0.4-0.3,0.8-0.6,1.3-0.8c0.4-0.2,0.9-0.4,1.3-0.5
			c0.5-0.1,0.9-0.1,1.3-0.1c0.6,0,1.2,0.1,1.7,0.3c0.5,0.2,0.9,0.4,1.2,0.7c0.3,0.3,0.6,0.6,0.8,0.9c0.2,0.3,0.3,0.7,0.3,1
			c0,0.3-0.1,0.5-0.1,0.7c-0.1,0.2-0.2,0.4-0.4,0.5c-0.2,0.1-0.3,0.3-0.5,0.3c-0.2,0.1-0.4,0.1-0.6,0.1c-0.3,0-0.6-0.1-0.9-0.2
			l0-0.1c0.1-0.3,0.2-0.5,0.3-0.7c0.1-0.2,0.1-0.4,0.1-0.7c0-0.3-0.1-0.6-0.2-0.8c-0.1-0.2-0.3-0.4-0.5-0.6
			c-0.2-0.1-0.4-0.3-0.7-0.3c-0.2-0.1-0.5-0.1-0.7-0.1c-0.7,0-1.3,0.2-1.9,0.5c-0.5,0.3-0.9,0.8-1.3,1.3c-0.3,0.6-0.6,1.2-0.8,2
			c-0.2,0.8-0.4,1.6-0.5,2.5c-0.1,0.9-0.2,1.8-0.2,2.8C559,611.6,558.9,612.5,558.9,613.5L558.9,613.5z"/>
		<path id="path1574" d="M573.8,621.7c-0.2,0.7-0.4,1.2-0.6,1.7c-0.2,0.5-0.3,0.9-0.5,1.3c-0.1,0.4-0.2,0.7-0.3,0.9
			c-0.1,0.3-0.2,0.5-0.3,0.7c-0.1,0.2-0.2,0.4-0.4,0.6c-0.1,0.1-0.3,0.2-0.4,0.3c-0.1,0.1-0.3,0.1-0.5,0.1c-0.2,0-0.4,0-0.6,0
			c-0.1,0-0.2,0-0.4,0c-0.2,0-0.3,0-0.5,0l-0.1-0.1c0.8-1.7,1.5-3.3,2.2-4.9c0.7-1.5,1.4-3,2-4.4c-0.1-0.2-0.2-0.4-0.2-0.5
			c0-0.3,0.2-0.4,0.6-0.4c1.2-2.6,2.3-4.9,3.2-6.9c0.9-2,1.8-3.7,2.5-5c0.1-0.1,0.2-0.2,0.3-0.3c0.1-0.1,0.2-0.1,0.3-0.2
			c0.1,0,0.3-0.1,0.4-0.1c0.1,0,0.3,0,0.4,0c0.2,0,0.4,0,0.6,0c0.2,0,0.4,0.1,0.6,0.2c0.4,2.3,0.8,4.3,1.1,6.1
			c0.3,1.8,0.7,3.4,1,4.8s0.6,2.6,0.8,3.7c0.3,1,0.5,2,0.7,2.7c0.2,0.7,0.5,1.4,0.7,1.9s0.5,0.9,0.7,1.2c0.3,0.3,0.5,0.5,0.8,0.6
			c0.3,0.1,0.6,0.2,0.9,0.2c0.2,0,0.4,0,0.7-0.1c0.2-0.1,0.5-0.1,0.8-0.2l0.3,0.8c-0.7,0.4-1.5,0.7-2.1,0.8
			c-0.7,0.2-1.3,0.3-1.8,0.3c-0.3,0-0.6-0.1-0.8-0.2c-0.3-0.1-0.5-0.3-0.8-0.6c-0.2-0.3-0.5-0.6-0.7-1.1c-0.2-0.5-0.5-1-0.7-1.7
			s-0.5-1.5-0.7-2.5c-0.2-1-0.5-2.1-0.8-3.3c-1.2,0-2.4,0-3.6,0.1c-1.2,0-2.4,0.1-3.6,0.2c-0.3,0.7-0.5,1.3-0.7,1.8
			C574.1,620.8,574,621.3,573.8,621.7L573.8,621.7z M582,616.9c-0.1-0.6-0.3-1.4-0.4-2.1c-0.2-0.8-0.3-1.6-0.5-2.5
			c-0.2-0.9-0.3-1.8-0.5-2.7c-0.2-1-0.3-1.9-0.5-2.9l-0.1,0c-0.9,1.9-1.8,3.8-2.5,5.5s-1.4,3.4-2,4.8c1.1,0,2.2,0,3.3-0.1
			C579.8,616.9,580.9,616.9,582,616.9L582,616.9z"/>
		<path id="path1576" d="M595.6,600.8c-0.1,1.1-0.3,2.2-0.4,3.4c-0.1,1.2-0.2,2.3-0.3,3.5c-0.1,1.2-0.2,2.4-0.3,3.6
			s-0.2,2.4-0.2,3.5c-0.1,1.2-0.1,2.3-0.2,3.4s-0.1,2.2,0,3.2c0,0.6,0,1.2,0,1.7c0,0.5,0,0.9,0.1,1.2c0,0.3,0.1,0.6,0.1,0.8
			c0.1,0.2,0.1,0.3,0.2,0.4s0.2,0.2,0.3,0.2c0.1,0,0.3,0,0.4,0c0.3,0,0.6,0,1-0.1c0.4-0.1,0.7-0.2,1.1-0.4l0.2,0.5
			c-0.2,0.2-0.5,0.4-0.9,0.6c-0.4,0.2-0.7,0.4-1.1,0.5s-0.8,0.3-1.2,0.4c-0.4,0.1-0.7,0.2-1,0.2c-0.4,0-0.6-0.1-0.8-0.3
			c-0.2-0.2-0.4-0.5-0.5-0.9c-0.1-0.4-0.2-0.9-0.2-1.6c0-0.7,0-1.4,0-2.4c0-0.3,0-0.8,0-1.4c0-0.6,0-1.4,0.1-2.2
			c0-0.8,0.1-1.7,0.1-2.7c0-1,0.1-2,0.1-3.1c0-1.1,0.1-2.1,0.2-3.2c0.1-1.1,0.1-2.1,0.2-3.1c0.1-1,0.1-2,0.2-2.9s0.1-1.7,0.1-2.4
			c0-0.2,0.1-0.3,0.1-0.4c0.1-0.1,0.2-0.2,0.3-0.3c0.1-0.1,0.3-0.1,0.4-0.2c0.2,0,0.3,0,0.5-0.1
			C594.8,600.5,595.2,600.6,595.6,600.8L595.6,600.8z"/>
		<path id="path1578" d="M603.3,600.7c-0.1,1.1-0.2,2.2-0.4,3.4c-0.1,1.2-0.2,2.3-0.3,3.5c-0.1,1.2-0.2,2.4-0.3,3.6
			c-0.1,1.2-0.2,2.4-0.2,3.5c-0.1,1.2-0.1,2.3-0.1,3.4s0,2.2,0,3.2c0,0.6,0,1.2,0,1.7c0,0.5,0.1,0.9,0.1,1.2c0,0.3,0.1,0.6,0.2,0.8
			c0.1,0.2,0.1,0.3,0.2,0.4s0.2,0.2,0.3,0.2c0.1,0,0.3,0,0.4,0c0.3,0,0.6,0,1-0.1c0.4-0.1,0.7-0.2,1.1-0.4l0.2,0.5
			c-0.2,0.2-0.5,0.4-0.9,0.6c-0.4,0.2-0.7,0.4-1.1,0.5c-0.4,0.2-0.8,0.3-1.1,0.4c-0.4,0.1-0.7,0.2-1,0.2c-0.4,0-0.6-0.1-0.8-0.3
			c-0.2-0.2-0.4-0.5-0.5-0.9c-0.1-0.4-0.2-0.9-0.2-1.6c0-0.7,0-1.4-0.1-2.4c0-0.3,0-0.8,0-1.4c0-0.6,0-1.4,0.1-2.2
			c0-0.8,0.1-1.7,0.1-2.7c0-1,0.1-2,0.1-3.1c0-1.1,0.1-2.1,0.1-3.2c0.1-1.1,0.1-2.1,0.2-3.1c0.1-1,0.1-2,0.1-2.9s0.1-1.7,0.1-2.4
			c0-0.2,0.1-0.3,0.1-0.4c0.1-0.1,0.2-0.2,0.3-0.3c0.1-0.1,0.3-0.1,0.4-0.2c0.2,0,0.3-0.1,0.5-0.1
			C602.5,600.4,602.9,600.5,603.3,600.7L603.3,600.7z"/>
		<path id="path1580" d="M614.5,616.8c0-0.5-0.1-1-0.3-1.3c-0.2-0.4-0.4-0.7-0.7-0.9c-0.3-0.2-0.6-0.4-0.9-0.5s-0.7-0.2-1-0.2
			c-0.5,0-0.9,0.1-1.2,0.2c-0.3,0.1-0.6,0.2-0.8,0.4c-0.2,0.2-0.3,0.4-0.4,0.6c-0.1,0.2-0.1,0.5-0.1,0.7c0,0.3,0.1,0.6,0.2,0.9
			c0.1,0.3,0.3,0.6,0.5,0.9l0,0.1c-0.4,0.2-0.7,0.3-1.1,0.3c-0.2,0-0.4,0-0.6-0.1c-0.2-0.1-0.4-0.2-0.5-0.3
			c-0.1-0.1-0.3-0.3-0.3-0.5c-0.1-0.2-0.1-0.4-0.1-0.6c0-0.4,0.1-0.7,0.3-1.1c0.2-0.3,0.4-0.7,0.7-0.9s0.7-0.5,1.1-0.8
			s0.8-0.4,1.2-0.6c0.4-0.2,0.9-0.3,1.3-0.4c0.4-0.1,0.8-0.1,1.2-0.1c0.7,0,1.3,0.1,1.8,0.3c0.5,0.2,0.9,0.4,1.2,0.8
			c0.3,0.3,0.5,0.8,0.7,1.3c0.1,0.5,0.2,1.1,0.2,1.7c0,0.4,0,0.9,0,1.4c0,0.5-0.1,1.1-0.1,1.6c0,0.6-0.1,1.1-0.1,1.7
			c0,0.6,0,1.2,0,1.8c0,0.9,0.2,1.6,0.5,2.1c0.4,0.5,0.8,0.7,1.4,0.7c0.5,0,1.1-0.2,1.7-0.6l0.3,0.4c-0.4,0.4-0.9,0.8-1.4,1
			c-0.5,0.2-1.1,0.4-1.6,0.4c-0.4,0-0.8-0.1-1.2-0.2c-0.4-0.1-0.7-0.3-0.9-0.6c-0.3-0.3-0.5-0.6-0.6-1.1c-0.1-0.4-0.2-0.9-0.2-1.5
			c0-0.2,0-0.3,0-0.5c0-0.2,0-0.3,0.1-0.5l-0.1,0c-0.3,0.6-0.6,1.1-1,1.7c-0.4,0.5-0.8,1-1.2,1.5c-0.4,0.4-0.9,0.8-1.4,1
			c-0.5,0.3-1,0.4-1.6,0.4c-0.4,0-0.9-0.1-1.2-0.2c-0.4-0.2-0.7-0.4-1-0.6c-0.3-0.3-0.5-0.6-0.6-1c-0.1-0.4-0.2-0.8-0.2-1.2
			c0-0.6,0.1-1.1,0.3-1.6c0.2-0.5,0.5-0.9,0.9-1.3c0.4-0.4,0.8-0.7,1.3-1c0.5-0.3,1.1-0.5,1.7-0.7c0.6-0.2,1.3-0.3,1.9-0.4
			c0.7-0.1,1.4-0.2,2.1-0.2c0-0.4,0.1-0.8,0.1-1.2C614.5,617.7,614.5,617.3,614.5,616.8L614.5,616.8z M608.6,623.6
			c0,0.3,0,0.5,0.1,0.7c0.1,0.2,0.2,0.4,0.3,0.6c0.1,0.2,0.3,0.3,0.5,0.4c0.2,0.1,0.4,0.1,0.7,0.1c0.3,0,0.6-0.1,0.9-0.2
			c0.3-0.1,0.6-0.3,0.9-0.6c0.3-0.2,0.6-0.5,0.9-0.9c0.3-0.3,0.5-0.7,0.7-1.1c0.2-0.4,0.4-0.8,0.5-1.3c0.1-0.4,0.2-0.9,0.3-1.4
			c-0.5,0-1,0.1-1.4,0.1c-0.5,0.1-0.9,0.1-1.4,0.2c-0.4,0.1-0.8,0.2-1.2,0.4s-0.7,0.4-0.9,0.6c-0.3,0.2-0.5,0.5-0.6,0.9
			C608.6,622.7,608.6,623.1,608.6,623.6L608.6,623.6z"/>
		<path id="path1582" d="M623.6,621.6c0.5-1.7,1-3.1,1.5-4.2c0.5-1.2,1.1-2.1,1.7-2.8c0.6-0.7,1.1-1.3,1.7-1.6
			c0.6-0.3,1.1-0.5,1.7-0.5c0.4,0,0.7,0.1,1.1,0.2c0.3,0.1,0.6,0.3,0.9,0.6c0.3,0.3,0.5,0.7,0.7,1.1c0.2,0.5,0.2,1,0.3,1.7
			c0,0.2,0,0.5,0,0.8c0,0.3,0,0.7-0.1,1.1c0,0.4-0.1,0.8-0.1,1.3c0,0.5-0.1,0.9-0.1,1.3c0,0.4,0,0.9-0.1,1.3c0,0.4,0,0.7,0,1
			c0,0.5,0,0.9,0.1,1.2c0.1,0.3,0.1,0.6,0.2,0.8c0.1,0.2,0.2,0.3,0.4,0.4c0.2,0.1,0.4,0.1,0.6,0.1c0.3,0,0.7-0.1,1.1-0.2
			c0.4-0.1,0.7-0.2,1.1-0.4l0.2,0.5c-0.2,0.2-0.5,0.4-0.9,0.6s-0.7,0.4-1.1,0.6c-0.4,0.2-0.8,0.3-1.2,0.4c-0.4,0.1-0.7,0.2-1,0.2
			c-0.4,0-0.6-0.1-0.8-0.3c-0.2-0.2-0.4-0.4-0.5-0.8c-0.1-0.3-0.2-0.7-0.2-1.1c0-0.4-0.1-0.9-0.1-1.4c0-0.6,0-1.2,0-1.9
			c0-0.6,0.1-1.3,0.1-1.9c0-0.6,0.1-1.1,0.1-1.6c0-0.5,0.1-0.9,0.1-1.2c0-0.7-0.2-1.3-0.4-1.6c-0.3-0.4-0.7-0.5-1.1-0.5
			c-0.4,0-0.8,0.2-1.2,0.5c-0.4,0.3-0.8,0.8-1.2,1.3c-0.4,0.6-0.8,1.2-1.2,2c-0.4,0.8-0.7,1.6-1,2.5c-0.3,0.9-0.5,1.8-0.7,2.8
			c-0.2,1-0.3,1.9-0.3,2.9l-2.1,0.3l-0.2,0c0-0.8,0.1-1.6,0.1-2.5c0-0.9,0.1-1.9,0.1-3c0-1,0.1-2.1,0.1-3.3c0-1.1,0.1-2.3,0.1-3.5
			c0-1.2,0.1-2.4,0.1-3.5s0.1-2.4,0.1-3.5c0-1.2,0.1-2.3,0.1-3.4s0.1-2.2,0.1-3.2c0-0.2,0-0.3,0.1-0.4c0.1-0.1,0.2-0.2,0.3-0.3
			c0.1-0.1,0.3-0.1,0.5-0.2c0.2,0,0.3-0.1,0.5-0.1c0.4,0,0.8,0.1,1.2,0.3c-0.1,1.3-0.2,2.6-0.3,3.7c-0.1,1.1-0.2,2.1-0.3,3.1
			c-0.1,0.9-0.1,1.8-0.2,2.6c-0.1,0.8-0.1,1.6-0.2,2.4c0,0.7-0.1,1.5-0.1,2.2c0,0.7-0.1,1.4-0.1,2.2c0,0.7-0.1,1.5-0.1,2.3
			C623.7,619.8,623.6,620.6,623.6,621.6L623.6,621.6z"/>
		<path id="path1584" d="M646.1,632.6c-0.2,0.2-0.4,0.4-0.6,0.5c-0.2,0.1-0.4,0.2-0.6,0.2c-0.3,0-0.6-0.1-1-0.2
			c-0.3-0.2-0.7-0.4-1-0.7c-0.5-0.5-1-1-1.4-1.7c-0.4-0.6-0.9-1.3-1.2-2.1c-0.4-0.7-0.7-1.5-1-2.4c-0.3-0.8-0.5-1.7-0.8-2.6
			c-0.2-0.9-0.4-1.8-0.5-2.7c-0.1-0.9-0.2-1.8-0.2-2.7c0-1.7,0.1-3.3,0.3-5c0.3-1.6,0.7-3.2,1.2-4.8c0.5-1.6,1.2-3.1,2.1-4.5
			c0.8-1.4,1.8-2.8,2.9-4.1l0.7,0.5c-0.9,1.2-1.7,2.4-2.4,3.7c-0.7,1.3-1.3,2.7-1.7,4.1c-0.5,1.4-0.8,2.9-1,4.4
			c-0.2,1.5-0.3,3-0.3,4.6c0,0.9,0.1,1.8,0.2,2.8c0.1,0.9,0.3,1.9,0.5,2.8s0.5,1.8,0.8,2.7c0.3,0.9,0.7,1.8,1.2,2.6
			c0.5,0.8,1,1.6,1.6,2.3c0.6,0.7,1.3,1.4,2,2L646.1,632.6z"/>
		<path id="path1586" d="M683.8,629.8c-0.6,0.9-1.3,1.7-1.9,2.3c-0.6,0.6-1.3,1.2-1.9,1.6c-0.7,0.4-1.3,0.7-2,0.9
			c-0.7,0.2-1.3,0.3-2,0.3c-0.8,0-1.5-0.1-2.3-0.2c-0.8-0.2-1.5-0.4-2.3-0.7c-0.8-0.3-1.5-0.6-2.3-1s-1.5-0.8-2.3-1.3
			c-0.8-0.4-1.5-0.9-2.3-1.3c-0.7-0.5-1.5-0.9-2.2-1.3c-0.7-0.4-1.4-0.8-2.1-1.1c-0.7-0.3-1.4-0.6-2-0.8c-0.4-0.1-0.7-0.2-1.1-0.3
			c-0.3-0.1-0.7-0.1-1-0.2c-0.3,0-0.6-0.1-0.9-0.1c-0.3,0-0.6-0.1-0.9-0.1c-1-0.2-2-0.5-2.9-1.1c-0.9-0.5-1.6-1.2-2.2-2.1
			s-1.1-1.9-1.5-3.1c-0.4-1.2-0.6-2.6-0.6-4.1c0-1.1,0-2.2,0.2-3.3s0.4-2.1,0.7-3c0.3-1,0.8-1.8,1.3-2.6c0.5-0.8,1.1-1.5,1.8-2.1
			s1.5-1.1,2.4-1.4c0.9-0.3,1.9-0.5,2.9-0.6c1.3,0,2.5,0.2,3.6,0.6c1.1,0.4,2.1,1.1,2.9,2c0.8,0.9,1.5,2,1.9,3.3
			c0.5,1.3,0.7,2.9,0.8,4.6c0,1,0,2-0.1,2.9c-0.1,1-0.3,1.9-0.6,2.7c-0.3,0.9-0.6,1.7-1,2.4c-0.4,0.8-0.9,1.4-1.5,2
			c-0.6,0.6-1.2,1.1-1.9,1.5c-0.7,0.4-1.5,0.7-2.3,0.9l0,0.1c0.7,0.1,1.5,0.3,2.2,0.6s1.5,0.5,2.3,0.9c0.8,0.3,1.6,0.7,2.3,1
			s1.6,0.7,2.4,1.1c0.8,0.4,1.6,0.7,2.4,1.1c0.8,0.3,1.6,0.6,2.4,0.9c0.8,0.3,1.6,0.5,2.3,0.6c0.8,0.1,1.5,0.2,2.3,0.2
			c0.6,0,1.1-0.1,1.7-0.2c0.6-0.1,1.1-0.3,1.6-0.6c0.5-0.2,1.1-0.6,1.6-1c0.5-0.4,1-0.9,1.5-1.4L683.8,629.8z M656.6,625.4
			c0.8,0,1.4-0.2,2.1-0.4c0.6-0.3,1.2-0.6,1.6-1.1c0.5-0.5,0.9-1,1.2-1.7c0.3-0.6,0.6-1.4,0.8-2.2c0.2-0.8,0.4-1.6,0.5-2.6
			c0.1-0.9,0.1-1.9,0.1-2.9c0-1.8-0.3-3.3-0.6-4.6c-0.4-1.3-0.9-2.4-1.5-3.2c-0.6-0.8-1.3-1.5-2.1-1.9c-0.8-0.4-1.7-0.6-2.6-0.6
			c-0.8,0-1.4,0.2-2.1,0.4c-0.6,0.3-1.2,0.6-1.6,1.1c-0.5,0.5-0.9,1-1.2,1.7c-0.3,0.6-0.6,1.4-0.8,2.2c-0.2,0.8-0.4,1.6-0.5,2.6
			c-0.1,0.9-0.1,1.9-0.1,2.8c0,1.8,0.3,3.3,0.6,4.6c0.4,1.3,0.9,2.4,1.5,3.2c0.6,0.8,1.3,1.5,2.1,1.9
			C654.9,625.2,655.7,625.4,656.6,625.4L656.6,625.4z"/>
		<path id="path1588" d="M672.1,613.5c0,0.4,0,0.9,0,1.4c0,0.5,0,1-0.1,1.5c0,0.5-0.1,1-0.1,1.6c0,0.5-0.1,1-0.1,1.5
			c0,0.5,0,0.9-0.1,1.3c0,0.4,0,0.7,0,1c0,0.8,0.2,1.3,0.5,1.7c0.3,0.3,0.7,0.5,1.2,0.5c0.6,0,1.1-0.3,1.7-0.9
			c0.6-0.6,1.1-1.5,1.6-2.7c0.5-1.2,0.9-2.5,1.2-3.9c0.3-1.4,0.5-3,0.6-4.6l2.1-0.3l0.2,0c0,0.6-0.1,1.3-0.1,2c0,0.7,0,1.4-0.1,2.1
			c0,0.7,0,1.4,0,2c0,0.7,0,1.3,0,1.8c0,1.1,0.1,1.9,0.3,2.6c0.1,0.7,0.3,1.2,0.5,1.6c0.2,0.4,0.4,0.6,0.7,0.8
			c0.3,0.1,0.5,0.2,0.8,0.2c0.1,0,0.3,0,0.4-0.1c0.1,0,0.3-0.1,0.4-0.1c0.1-0.1,0.2-0.1,0.3-0.2c0.1-0.1,0.2-0.1,0.3-0.2l0.3,0.4
			c-0.2,0.2-0.4,0.4-0.6,0.6c-0.2,0.2-0.5,0.3-0.7,0.5c-0.3,0.1-0.5,0.2-0.8,0.3s-0.6,0.1-0.9,0.1c-0.4,0-0.7-0.1-1.1-0.2
			c-0.4-0.1-0.7-0.4-1-0.7c-0.3-0.3-0.5-0.8-0.7-1.4c-0.2-0.6-0.3-1.3-0.3-2.2c0-0.3,0-0.6,0-0.8c0-0.3,0-0.6,0-0.9
			c0-0.3,0-0.7,0.1-1c0-0.4,0.1-0.8,0.1-1.2l-0.1,0c-0.4,1.6-0.8,3-1.3,4.2c-0.5,1.1-1,2-1.5,2.7c-0.5,0.7-1,1.2-1.6,1.5
			c-0.5,0.3-1.1,0.5-1.5,0.5c-0.4,0-0.7,0-1.1-0.2c-0.3-0.1-0.7-0.3-0.9-0.6c-0.3-0.3-0.5-0.7-0.7-1.1c-0.2-0.5-0.3-1.1-0.3-1.7
			c0-0.5,0-1,0-1.6c0-0.6,0.1-1.2,0.1-1.9c0-0.7,0.1-1.4,0.1-2.1c0-0.7,0-1.5,0-2.2c0-0.3,0-0.5-0.1-0.7c0-0.2-0.1-0.4-0.1-0.5
			c-0.1-0.1-0.2-0.2-0.3-0.3c-0.1-0.1-0.3-0.1-0.5-0.1c-0.2,0-0.5,0-0.9,0.1c-0.3,0.1-0.7,0.2-1.1,0.3l-0.2-0.7
			c0.5-0.2,1-0.4,1.5-0.5c0.5-0.2,0.9-0.3,1.2-0.4c0.4-0.1,0.7-0.2,0.9-0.2c0.3-0.1,0.4-0.1,0.6-0.1c0.2,0,0.4,0,0.6,0.1
			s0.3,0.2,0.4,0.4s0.2,0.4,0.2,0.6C672,612.9,672,613.2,672.1,613.5L672.1,613.5z"/>
		<path id="path1590" d="M686.5,625.5l-0.2,0c0-0.6,0.1-1.3,0.1-2c0-0.7,0-1.5,0-2.2c0-0.8,0-1.5,0-2.2c0-0.7,0-1.4,0-2.1
			c0-0.6,0-1.2,0-1.7c0-0.5,0-0.9,0-1.2c0-0.2,0-0.4-0.1-0.6c0-0.2-0.1-0.3-0.2-0.4c-0.1-0.1-0.2-0.2-0.3-0.2
			c-0.1-0.1-0.3-0.1-0.5-0.1c-0.1,0-0.2,0-0.3,0s-0.2,0-0.4,0.1s-0.3,0.1-0.5,0.1c-0.2,0-0.4,0.1-0.6,0.2l-0.2-0.7
			c1.1-0.4,1.9-0.7,2.6-0.9c0.7-0.2,1.1-0.3,1.3-0.3c0.4,0,0.7,0.1,0.9,0.3c0.2,0.2,0.3,0.6,0.3,1.1c0,0,0,0.2,0,0.4
			c0,0.2,0,0.5,0,0.9c0,0.4,0,0.8,0,1.2c0,0.5,0,1-0.1,1.5c0,0.5,0,1.1-0.1,1.7c0,0.6-0.1,1.2-0.1,1.7l0.1,0
			c0.3-1.3,0.6-2.5,0.9-3.6c0.4-1.1,0.8-2.1,1.2-2.9c0.5-0.8,1-1.5,1.6-2c0.6-0.5,1.2-0.7,1.9-0.8c0.2,0,0.5,0,0.7,0.1
			s0.4,0.2,0.6,0.3c0.2,0.1,0.3,0.3,0.4,0.5c0.1,0.2,0.2,0.4,0.2,0.6c0,0.3,0,0.6-0.2,0.9c-0.1,0.3-0.3,0.5-0.6,0.7l-0.1,0
			c-0.3-0.2-0.5-0.4-0.8-0.5c-0.2-0.1-0.5-0.1-0.8-0.1c-0.3,0-0.6,0.1-0.8,0.2c-0.3,0.1-0.5,0.3-0.7,0.5c-0.4,0.4-0.7,0.8-1,1.4
			c-0.3,0.6-0.6,1.2-0.8,1.9c-0.2,0.7-0.4,1.4-0.6,2.2c-0.2,0.7-0.3,1.5-0.5,2.2c-0.1,0.7-0.2,1.4-0.3,2c-0.1,0.6-0.1,1.1-0.1,1.6
			L686.5,625.5z"/>
		<path id="path1592" d="M703.3,616.2c0.1,0.1,0.1,0.3,0.1,0.4c0,0.1,0,0.3,0.1,0.4c0,0.2,0,0.3-0.1,0.5c-0.1,0.1-0.2,0.2-0.3,0.3
			c-0.1,0.1-0.3,0.1-0.6,0.2c-0.2,0-0.5,0.1-0.9,0.1c-0.3,0-0.6,0-1,0c-0.3,0-0.6,0-1,0c-0.3,0-0.7,0-1,0c-0.3,0-0.6,0-1,0
			c-0.4,0-0.9,0.1-1.3,0.1c-0.4,0.1-0.8,0.1-1.2,0.3c0-0.4,0-0.7,0.2-1c0.1-0.2,0.3-0.4,0.6-0.6c0.2-0.1,0.6-0.2,0.9-0.3
			c0.4-0.1,0.8-0.1,1.2-0.1c0.4,0,0.9,0,1.5,0c0.5,0,1.1,0,1.7,0c0.4,0,0.7,0,1.1-0.1C702.7,616.4,703,616.3,703.3,616.2
			L703.3,616.2z"/>
		<path id="path1594" d="M713.5,614.1c0-0.5-0.1-1-0.3-1.3s-0.4-0.7-0.7-0.9s-0.6-0.4-1-0.5c-0.3-0.1-0.7-0.1-1-0.1
			c-0.5,0-0.8,0.1-1.2,0.2c-0.3,0.1-0.6,0.3-0.8,0.4c-0.2,0.2-0.3,0.4-0.4,0.6c-0.1,0.2-0.1,0.5-0.1,0.7c0,0.3,0.1,0.6,0.2,0.9
			c0.1,0.3,0.3,0.6,0.5,0.9l0,0.1c-0.4,0.2-0.7,0.3-1.1,0.3c-0.2,0-0.4,0-0.6-0.1c-0.2-0.1-0.4-0.2-0.5-0.3
			c-0.1-0.1-0.3-0.3-0.4-0.5c-0.1-0.2-0.1-0.4-0.1-0.6c0-0.4,0.1-0.7,0.2-1.1c0.2-0.3,0.4-0.7,0.7-1c0.3-0.3,0.6-0.6,1-0.8
			c0.4-0.2,0.8-0.4,1.2-0.6c0.4-0.2,0.8-0.3,1.3-0.4c0.4-0.1,0.8-0.2,1.2-0.2c0.7,0,1.3,0,1.8,0.2c0.5,0.2,0.9,0.4,1.2,0.7
			c0.3,0.3,0.6,0.7,0.7,1.2c0.2,0.5,0.3,1,0.3,1.7c0,0.4,0,0.9,0,1.4c0,0.5,0,1.1,0,1.6c0,0.6,0,1.1-0.1,1.7c0,0.6,0,1.2,0,1.8
			c0,0.9,0.2,1.6,0.6,2.1c0.4,0.5,0.8,0.7,1.4,0.6c0.5,0,1.1-0.2,1.7-0.6l0.3,0.4c-0.4,0.5-0.9,0.8-1.4,1.1c-0.5,0.2-1,0.4-1.6,0.4
			c-0.4,0-0.8,0-1.2-0.2c-0.4-0.1-0.7-0.3-1-0.6c-0.3-0.3-0.5-0.6-0.7-1c-0.2-0.4-0.3-0.9-0.3-1.5c0-0.2,0-0.3,0-0.5
			c0-0.2,0-0.3,0-0.5l-0.1,0c-0.3,0.6-0.6,1.1-0.9,1.7c-0.3,0.6-0.7,1.1-1.1,1.5c-0.4,0.4-0.9,0.8-1.4,1.1c-0.5,0.3-1,0.4-1.5,0.5
			c-0.4,0-0.9,0-1.2-0.2c-0.4-0.1-0.7-0.3-1-0.6c-0.3-0.3-0.5-0.6-0.7-0.9c-0.2-0.4-0.2-0.8-0.3-1.2c0-0.6,0.1-1.1,0.2-1.6
			c0.2-0.5,0.5-0.9,0.8-1.3c0.4-0.4,0.8-0.7,1.3-1c0.5-0.3,1.1-0.5,1.7-0.7c0.6-0.2,1.2-0.4,1.9-0.5c0.7-0.1,1.4-0.2,2.1-0.2
			c0-0.4,0-0.8,0.1-1.2C713.5,615,713.5,614.6,713.5,614.1L713.5,614.1z M707.8,621.1c0,0.3,0,0.5,0.1,0.7c0.1,0.2,0.2,0.4,0.3,0.6
			c0.1,0.2,0.3,0.3,0.5,0.4c0.2,0.1,0.4,0.1,0.7,0.1c0.3,0,0.6-0.1,0.9-0.2c0.3-0.2,0.6-0.4,0.9-0.6c0.3-0.3,0.6-0.6,0.8-0.9
			c0.3-0.4,0.5-0.7,0.7-1.1c0.2-0.4,0.4-0.8,0.5-1.3c0.1-0.4,0.2-0.9,0.2-1.4c-0.5,0-1,0.1-1.4,0.2c-0.5,0.1-0.9,0.2-1.3,0.3
			c-0.4,0.1-0.8,0.3-1.2,0.5c-0.4,0.2-0.7,0.4-0.9,0.7c-0.2,0.3-0.4,0.6-0.6,0.9C707.8,620.2,707.7,620.6,707.8,621.1z"/>
		<path id="path1596" d="M721.3,612.6c0-0.3,0-0.5-0.1-0.7c0-0.2-0.1-0.3-0.2-0.4c-0.1-0.1-0.2-0.2-0.3-0.2c-0.1,0-0.3-0.1-0.4,0
			c-0.2,0-0.5,0.1-0.8,0.1s-0.7,0.2-1.1,0.3l-0.2-0.7c0.5-0.2,0.9-0.4,1.3-0.5c0.4-0.2,0.8-0.3,1.2-0.4c0.4-0.1,0.7-0.2,0.9-0.3
			s0.5-0.1,0.6-0.1c0.4,0,0.7,0.1,0.9,0.3c0.2,0.2,0.4,0.6,0.4,1.1c0,0.1,0,0.2,0,0.5c0,0.2,0,0.5,0,0.9c0,0.4,0,0.8,0,1.3
			c0,0.5,0,1,0,1.5c0,0.5,0,1.1-0.1,1.7c0,0.6-0.1,1.1-0.1,1.7l0.1,0c0.4-1.7,0.9-3.1,1.4-4.3c0.5-1.2,1-2.1,1.6-2.9
			c0.5-0.8,1.1-1.3,1.7-1.6c0.6-0.3,1.1-0.5,1.6-0.6c0.4,0,0.7,0,1.1,0.2c0.3,0.1,0.7,0.3,0.9,0.6c0.3,0.3,0.5,0.7,0.7,1.1
			c0.2,0.5,0.3,1,0.3,1.7c0,0.2,0,0.5,0,0.8c0,0.3,0,0.7,0,1.1c0,0.4,0,0.8-0.1,1.3c0,0.5,0,0.9,0,1.3c0,0.4,0,0.9,0,1.3
			c0,0.4,0,0.7,0,1c0,0.5,0.1,0.9,0.1,1.2c0.1,0.3,0.1,0.6,0.3,0.8c0.1,0.2,0.2,0.3,0.4,0.4c0.2,0.1,0.4,0.1,0.6,0.1
			c0.3,0,0.7-0.1,1-0.2c0.4-0.1,0.7-0.3,1.1-0.5l0.2,0.5c-0.2,0.2-0.5,0.4-0.9,0.6s-0.7,0.4-1.1,0.6c-0.4,0.2-0.8,0.3-1.2,0.4
			c-0.4,0.1-0.7,0.2-1,0.2c-0.4,0-0.6-0.1-0.8-0.2s-0.4-0.4-0.5-0.7c-0.1-0.3-0.2-0.7-0.3-1.1c0-0.4-0.1-0.9-0.1-1.4
			c0-0.6,0-1.2,0-1.9c0-0.7,0-1.3,0.1-1.9c0-0.6,0-1.1,0.1-1.6c0-0.5,0-0.9,0-1.2c0-0.8-0.2-1.3-0.5-1.7c-0.3-0.4-0.7-0.5-1.2-0.5
			c-0.4,0-0.8,0.2-1.2,0.5s-0.8,0.8-1.2,1.4c-0.4,0.6-0.7,1.2-1.1,2c-0.3,0.8-0.6,1.6-0.9,2.5c-0.3,0.9-0.5,1.8-0.6,2.8
			c-0.2,1-0.2,1.9-0.2,2.9l-2,0.4l-0.2,0c0-0.6,0-1.3,0-2c0-0.7,0-1.5,0-2.2c0-0.8,0-1.5,0-2.2c0-0.7,0-1.4,0-2.1c0-0.6,0-1.2,0-1.7
			C721.3,613.3,721.3,612.9,721.3,612.6L721.3,612.6z"/>
		<path id="path1598" d="M753.5,618.4c0.1,0.1,0.1,0.2,0.1,0.2c0,0.1,0.1,0.1,0.1,0.2c0,0.2-0.1,0.4-0.4,0.6
			c-0.6,0.4-1.2,0.6-1.8,0.8c-0.6,0.2-1.2,0.3-1.8,0.3c-0.7,0-1.4,0-2.1-0.3c-0.7-0.2-1.3-0.6-1.8-1c-0.5-0.5-1-1.1-1.3-1.8
			c-0.3-0.7-0.5-1.5-0.6-2.4c0-0.8,0-1.5,0.1-2.1c0.1-0.6,0.4-1.2,0.6-1.8c0.3-0.5,0.6-1,1-1.4c0.4-0.4,0.9-0.8,1.3-1
			c0.5-0.3,1-0.5,1.5-0.7s1.1-0.3,1.6-0.3c0.5,0,1.1,0,1.6,0.1c0.5,0.1,1,0.3,1.5,0.6c0.5,0.3,1,0.6,1.4,1.1c0.4,0.4,0.8,1,1.1,1.6
			c0.3,0.6,0.6,1.3,0.8,2.2c0.2,0.8,0.4,1.7,0.4,2.7c0,0.7,0,1.4,0,2.2c0,0.7-0.1,1.5-0.3,2.2c-0.1,0.7-0.3,1.5-0.6,2.2
			c-0.2,0.7-0.5,1.4-0.9,2.1c-0.3,0.7-0.7,1.3-1.2,1.8s-1,1-1.5,1.5c-0.6,0.4-1.2,0.8-1.9,1c-0.7,0.3-1.4,0.4-2.3,0.5
			c-0.7,0-1.2,0-1.8-0.1c-0.5-0.1-1-0.3-1.3-0.5c-0.4-0.2-0.6-0.4-0.9-0.7c-0.2-0.2-0.3-0.5-0.3-0.8c0-0.1,0-0.3,0-0.4
			c0-0.1,0.1-0.3,0.2-0.4c0.1-0.1,0.2-0.2,0.4-0.3c0.2-0.1,0.4-0.2,0.6-0.2c0.3,0.4,0.6,0.7,1,0.9c0.3,0.2,0.7,0.4,1,0.5
			c0.3,0.1,0.7,0.2,1,0.2s0.7,0,1,0c1-0.1,1.8-0.3,2.5-0.9c0.7-0.5,1.3-1.2,1.7-2.2c0.4-0.9,0.7-2,0.9-3.3s0.2-2.7,0.1-4.3
			c-0.1-1.5-0.3-2.8-0.6-3.9c-0.3-1.1-0.7-1.9-1.1-2.6c-0.4-0.6-0.9-1.1-1.5-1.4c-0.5-0.3-1.1-0.4-1.6-0.4c-0.6,0-1.1,0.2-1.6,0.4
			c-0.5,0.2-0.8,0.5-1.1,1s-0.5,0.9-0.7,1.5c-0.1,0.6-0.2,1.3-0.1,2c0,0.4,0.1,0.8,0.2,1.2s0.2,0.8,0.4,1.2s0.4,0.8,0.7,1.1
			c0.3,0.4,0.6,0.7,0.9,0.9c0.3,0.3,0.7,0.5,1.1,0.6c0.4,0.1,0.9,0.2,1.3,0.2c0.4,0,0.9-0.1,1.3-0.2
			C752.6,618.9,753,618.7,753.5,618.4L753.5,618.4z"/>
		<path id="path1600" d="M763.5,611.3c-0.1-0.1-0.1-0.2-0.2-0.2c0-0.1-0.1-0.2-0.1-0.2c0-0.2,0.1-0.4,0.4-0.6
			c0.6-0.4,1.2-0.6,1.8-0.8c0.6-0.2,1.2-0.3,1.8-0.3c0.7,0,1.4,0,2.1,0.2c0.7,0.2,1.3,0.5,1.8,0.9c0.5,0.4,1,1,1.3,1.7
			c0.3,0.7,0.5,1.5,0.6,2.4c0,0.8,0,1.5-0.1,2.1c-0.1,0.7-0.3,1.3-0.6,1.8c-0.3,0.6-0.6,1-1,1.5c-0.4,0.4-0.8,0.8-1.3,1.1
			c-0.5,0.3-1,0.6-1.5,0.7c-0.5,0.2-1.1,0.3-1.6,0.3c-0.5,0-1.1,0-1.6-0.1c-0.5-0.1-1.1-0.3-1.6-0.6c-0.5-0.3-1-0.6-1.4-1.1
			c-0.4-0.4-0.8-1-1.2-1.6c-0.3-0.6-0.6-1.3-0.8-2.1c-0.2-0.8-0.4-1.7-0.4-2.8c-0.1-1.1,0-2.1,0.1-3.2c0.2-1.1,0.4-2.1,0.8-3.1
			c0.4-1,0.8-1.9,1.3-2.8s1.1-1.6,1.8-2.3c0.7-0.6,1.4-1.2,2.3-1.6c0.8-0.4,1.7-0.6,2.6-0.7c0.6,0,1,0,1.5,0
			c0.4,0.1,0.8,0.2,1.1,0.3c0.3,0.1,0.5,0.3,0.7,0.5c0.1,0.2,0.2,0.4,0.2,0.6c0,0.1,0,0.2,0,0.4c0,0.1-0.1,0.3-0.2,0.4
			c-0.1,0.1-0.2,0.3-0.4,0.4c-0.1,0.1-0.3,0.2-0.6,0.3c-0.3-0.3-0.6-0.5-0.9-0.7c-0.3-0.2-0.6-0.3-0.9-0.4c-0.3-0.1-0.6-0.1-0.9-0.2
			c-0.3,0-0.6,0-0.8,0c-0.9,0.1-1.7,0.3-2.4,0.9c-0.7,0.5-1.3,1.2-1.8,2.1c-0.5,0.9-0.8,2-1,3.3c-0.2,1.3-0.3,2.7-0.2,4.4
			c0.1,1.5,0.3,2.8,0.6,3.9c0.3,1,0.7,1.9,1.2,2.5s1,1.1,1.5,1.4c0.6,0.3,1.1,0.4,1.7,0.3c0.6,0,1.1-0.2,1.5-0.4
			c0.5-0.3,0.8-0.6,1.1-1.1c0.3-0.4,0.5-1,0.7-1.6c0.1-0.6,0.2-1.3,0.1-2.1c0-0.4-0.1-0.8-0.2-1.2c-0.1-0.4-0.2-0.8-0.4-1.2
			c-0.2-0.4-0.4-0.7-0.6-1.1c-0.2-0.3-0.5-0.6-0.9-0.8c-0.3-0.2-0.7-0.4-1.1-0.5c-0.4-0.1-0.8-0.2-1.3-0.1c-0.4,0-0.9,0.1-1.3,0.2
			S764,611,763.5,611.3L763.5,611.3z"/>
		<path id="path1602" d="M778.7,620.9c-0.2,0-0.4,0-0.6-0.1c-0.2-0.1-0.4-0.2-0.5-0.3c-0.1-0.1-0.2-0.3-0.3-0.5
			c-0.1-0.2-0.1-0.4-0.1-0.6c0-0.3,0-0.6,0.1-0.8c0.1-0.2,0.2-0.4,0.4-0.6c0.2-0.2,0.3-0.3,0.5-0.4c0.2-0.1,0.4-0.1,0.6-0.2
			c0.2,0,0.4,0,0.6,0.1c0.2,0.1,0.4,0.2,0.5,0.3c0.1,0.1,0.3,0.3,0.3,0.5c0.1,0.2,0.1,0.4,0.1,0.6c0,0.2,0,0.5-0.1,0.7
			s-0.2,0.4-0.3,0.6c-0.1,0.2-0.3,0.3-0.5,0.5C779.1,620.9,778.9,620.9,778.7,620.9L778.7,620.9z M778.4,610.4c-0.2,0-0.4,0-0.6-0.1
			c-0.2-0.1-0.4-0.2-0.5-0.3c-0.1-0.1-0.2-0.3-0.3-0.5c-0.1-0.2-0.1-0.4-0.1-0.6c0-0.3,0-0.6,0.1-0.8c0.1-0.2,0.2-0.4,0.4-0.6
			c0.2-0.2,0.3-0.3,0.5-0.4s0.4-0.1,0.6-0.2c0.2,0,0.4,0,0.6,0.1c0.2,0.1,0.4,0.2,0.5,0.3c0.1,0.1,0.3,0.3,0.3,0.5
			c0.1,0.2,0.1,0.4,0.1,0.6c0,0.2,0,0.5-0.1,0.7s-0.2,0.4-0.3,0.6c-0.1,0.2-0.3,0.4-0.5,0.5C778.9,610.3,778.7,610.4,778.4,610.4
			L778.4,610.4z"/>
		<path id="path1604" d="M780.8,607.7c0.8-0.3,1.5-0.6,2.2-0.9c0.7-0.3,1.3-0.5,1.8-0.6c0.5-0.2,1-0.3,1.3-0.4
			c0.3-0.1,0.6-0.1,0.7-0.2c0.2,0,0.4,0,0.5,0.2c0.1,0.1,0.2,0.3,0.2,0.5c0,0.1,0,0.2,0,0.4c0,0.2,0,0.5,0,0.8c0,0.3,0,0.7,0,1.2
			c0,0.4,0,0.9,0,1.3c0,0.4,0,0.9,0,1.4c0,0.5,0,0.9,0,1.3c0,0.6,0,1.2,0,1.8c0,0.6,0,1.2,0,1.8c0,0.6,0,1.2,0.1,1.8
			c0,0.6,0.1,1.2,0.1,1.7l-2.1,0.4l-0.2,0c0-0.4,0-0.9,0-1.4c0-0.5,0-1,0-1.5c0-0.5,0-0.9,0-1.4c0-0.4,0-0.8,0-1.1
			c0-0.9-0.1-1.8-0.1-2.9c0-1.1-0.1-2.3-0.2-3.6c0-0.4-0.1-0.6-0.2-0.8c-0.1-0.2-0.3-0.2-0.6-0.2c-0.3,0-0.7,0.1-1.3,0.3
			c-0.6,0.1-1.3,0.4-2.2,0.7L780.8,607.7z"/>
		<path id="path1606" d="M789,593.9c0.2-0.2,0.3-0.4,0.5-0.5c0.2-0.1,0.4-0.2,0.6-0.2c0.3,0,0.6,0,1,0.2c0.3,0.1,0.7,0.4,1,0.7
			c0.5,0.5,1,1,1.5,1.6c0.5,0.6,0.9,1.3,1.3,2c0.4,0.7,0.8,1.5,1.1,2.3c0.3,0.8,0.6,1.7,0.9,2.5c0.3,0.9,0.5,1.7,0.6,2.6
			c0.2,0.9,0.3,1.8,0.3,2.6c0.1,1.7,0.1,3.3-0.1,5c-0.2,1.6-0.5,3.3-1,4.8c-0.5,1.6-1.1,3.1-1.8,4.6c-0.7,1.5-1.6,2.9-2.7,4.3
			l-0.7-0.5c0.9-1.2,1.6-2.5,2.2-3.9c0.6-1.4,1.1-2.8,1.5-4.2s0.6-2.9,0.8-4.5c0.1-1.5,0.2-3,0-4.6c-0.1-0.9-0.2-1.8-0.3-2.7
			c-0.2-0.9-0.4-1.9-0.6-2.8c-0.3-0.9-0.6-1.8-1-2.7c-0.4-0.9-0.8-1.7-1.3-2.5c-0.5-0.8-1.1-1.5-1.7-2.2c-0.6-0.7-1.3-1.3-2.1-1.9
			L789,593.9z"/>
	</g>
</g>
<g id="_x31_998">
	<text transform="matrix(0.8632 0 0 1 485.0967 681.3838)" class="st3 st4">  since 1998</text>
</g>
<g id="banner">
	<path id="path1610" class="st5" d="M264.7,556.9c2.2,2.7-7.5,19-9.7,19.8 M159.7,565.1c17.3,18,22.5,44.3,6.2,60.5 M945.2,626.3
		l8.4,10.4c-7.6,24-770.2,25.1-794.7-0.5c6.9-7.4,6.9-10.7,6.9-10.7s-61.4,10.5-90.6-2.3c0,0,66.3-14.8,75-30.6
		c0,0-44.5-10.5-75-40.3c39.2,14.3,111.3-3.1,168.3-0.7c9.1,0.4,20.4,1.3,21.1,5.2c0.7,11.5-121.3-1.8-105.1,8.2
		c9.8,5,45.5,8.9,96.7,11.6c208,11.2,672.2,4.7,697.1-12C946.2,569.3,924,600.4,945.2,626.3 M945.2,626.3c0,0,65.1,6.6,90.9-2.4
		c0,0-67.5-18.4-73.1-30.3c20.5-3.6,58.1-22.8,73.9-43.9c-34.9,20.2-171.1-20.3-190.4,8.4c2.4,13.5,9.1,17.9,10.7,17.4 M953.4,564.7
		c7.2-5.1-94.8,2.6-106.9-6.5"/>
</g>
<g id="top_round">
	<path id="path1045" class="st6" d="M176.5,552.1c-9-144.9,61.2-283,182.2-358.3s272.7-75.5,393.8-0.4s191.5,213,182.8,358"/>
</g>
<g id="bottom_round">
	<path id="path1041" class="st6" d="M265.4,559.2c-11.8-114.8,40.7-226.6,135.4-287.9s214.9-61.4,309.6-0.3s147.5,172.8,135.9,287.6
		"/>
</g>
<g id="banner_bottom">
	<path id="path3421" class="st7" d="M954.3,638.8c-23.4,30.5-203.7,53.1-413.3,52c-209.6-1.2-377.6-25.8-385.1-56.4"/>
</g>
<g id="book">
	
		<image style="overflow:visible;enable-background:new    ;" width="418" height="245" id="image3403" xlink:href="75C7A6D2.png"  transform="matrix(0.2581 0 0 0.2695 330.603 508.2475)">
	</image>
</g>
<g id="stethoscope">
	
		<image style="overflow:visible;enable-background:new    ;" width="512" height="505" id="image3417" xlink:href="75C7A6DD.png"  transform="matrix(-9.383741e-02 -7.367429e-02 -6.621843e-02 9.195804e-02 745.5254 540.8727)">
	</image>
</g>
<g id="lamps">
	<path id="path3485" class="st8" d="M128,459.1c-0.7,0-1.3,0.6-1.3,1.4c0,0.8,0.6,1.4,1.3,1.4c0.7,0,1.3-0.6,1.3-1.4v0
		C129.4,459.7,128.7,459.1,128,459.1L128,459.1z M128,464.3c-0.7,0-1.3,0.6-1.3,1.4c0,0.8,0.6,1.4,1.3,1.4c0.7,0,1.3-0.6,1.3-1.4v0
		C129.4,465,128.7,464.3,128,464.3L128,464.3z M128,469.3c-0.7,0-1.3,0.6-1.3,1.4c0,0.8,0.6,1.4,1.3,1.4c0.7,0,1.3-0.6,1.3-1.4v0
		C129.4,469.9,128.7,469.3,128,469.3L128,469.3z M128,474.3c-0.7,0-1.3,0.6-1.3,1.4c0,0.8,0.6,1.4,1.3,1.4c0.7,0,1.3-0.6,1.3-1.4v0
		C129.4,474.9,128.7,474.3,128,474.3L128,474.3z M127.6,477.3l-0.4,3.4l-0.8,0.6l-0.2,2c-6.8,1.6-9.7,6.1-12.2,10.9l-5.1-0.1v2.7
		h1.1l0.2,1.1l1.4,0.3v35.9H110v1.2h-1.5v2.8h7.2c5.8,5.9,9.3,7.2,12.4,7.5c6.9-1.4,8.9-4.8,11.8-7.7h6.9v-2.5h-0.8v-1.1h-1.7v-35.9
		h1.4V497h1.7v-2.8h-5.9c-1.3-5.3-5.2-9-11.8-11.2l0.1-1.3l-1-0.8l-0.3-3.5L127.6,477.3z M127.6,500.2c2.7,1.2,3.4,3,4.7,5.5v26.3
		h-9l-0.1-26C123.8,504.4,124.4,502.1,127.6,500.2L127.6,500.2z M117.1,500.2c1.7,1.2,2.2,3,3.1,5.5v26.3h-5.9l-0.1-26
		C114.6,504.4,115,502.1,117.1,500.2L117.1,500.2z M138.5,500.2c1.7,1.2,2.2,3,3.1,5.5v26.3h-5.9l-0.1-26
		C136,504.4,136.4,502.1,138.5,500.2L138.5,500.2z"/>
	<path id="path3542" class="st8" d="M983.9,457.1c-0.7,0-1.3,0.6-1.3,1.4c0,0.8,0.6,1.4,1.3,1.4c0.7,0,1.3-0.6,1.3-1.4v0
		C985.2,457.7,984.6,457.1,983.9,457.1L983.9,457.1z M983.9,462.3c-0.7,0-1.3,0.6-1.3,1.4c0,0.8,0.6,1.4,1.3,1.4
		c0.7,0,1.3-0.6,1.3-1.4v0C985.2,463,984.6,462.3,983.9,462.3L983.9,462.3z M983.9,467.3c-0.7,0-1.3,0.6-1.3,1.4
		c0,0.8,0.6,1.4,1.3,1.4c0.7,0,1.3-0.6,1.3-1.4v0C985.2,467.9,984.6,467.3,983.9,467.3L983.9,467.3z M983.9,472.3
		c-0.7,0-1.3,0.6-1.3,1.4c0,0.8,0.6,1.4,1.3,1.4c0.7,0,1.3-0.6,1.3-1.4v0C985.2,472.9,984.6,472.3,983.9,472.3L983.9,472.3z
		 M983.4,475.3l-0.4,3.4l-0.8,0.6l-0.2,2c-6.8,1.6-9.7,6.1-12.2,10.9l-5.1-0.1v2.7h1.1l0.2,1.1l1.4,0.3v35.9h-1.5v1.2h-1.5v2.8h7.2
		c5.8,5.9,9.3,7.2,12.4,7.5c6.9-1.4,8.9-4.8,11.8-7.7h6.9v-2.5h-0.8v-1.1h-1.7v-35.9h1.4V495h1.7v-2.8h-5.9
		c-1.3-5.3-5.2-9-11.8-11.2l0.1-1.3l-1-0.8l-0.3-3.5H983.4z M983.5,498.2c2.7,1.2,3.4,3,4.7,5.5v26.3h-9l-0.1-26
		C979.7,502.4,980.3,500.1,983.5,498.2L983.5,498.2z M972.9,498.2c1.7,1.2,2.2,3,3.1,5.5v26.3h-5.9l-0.1-26
		C970.5,502.4,970.9,500.1,972.9,498.2L972.9,498.2z M994.4,498.2c1.7,1.2,2.2,3,3.1,5.5v26.3h-5.9l-0.1-26
		C991.9,502.4,992.3,500.1,994.4,498.2L994.4,498.2z"/>
</g>
</svg>
